<svg width="34" height="34" viewBox="0 0 34 34" fill="none" xmlns="http://www.w3.org/2000/svg">
<path d="M0 17C0 7.61116 7.61116 0 17 0V0C26.3888 0 34 7.61116 34 17V17C34 26.3888 26.3888 34 17 34V34C7.61116 34 0 26.3888 0 17V17Z" fill="#A1B5A0"/>
<g clip-path="url(#clip0_15102_1307)">
<path fill-rule="evenodd" clip-rule="evenodd" d="M17 26C19.3869 26 21.6761 25.0518 23.364 23.364C25.0518 21.6761 26 19.3869 26 17C26 14.6131 25.0518 12.3239 23.364 10.636C21.6761 8.94821 19.3869 8 17 8C14.6131 8 12.3239 8.94821 10.636 10.636C8.94821 12.3239 8 14.6131 8 17C8 19.3869 8.94821 21.6761 10.636 23.364C12.3239 25.0518 14.6131 26 17 26V26ZM16.4994 13.814C16.3299 13.701 16.133 13.636 15.9296 13.6262C15.7261 13.6163 15.5238 13.6618 15.3443 13.7579C15.1647 13.854 15.0146 13.997 14.9099 14.1717C14.8052 14.3465 14.75 14.5463 14.75 14.75V19.25C14.75 19.4537 14.8052 19.6535 14.9099 19.8283C15.0146 20.003 15.1647 20.146 15.3443 20.2421C15.5238 20.3382 15.7261 20.3837 15.9296 20.3738C16.133 20.364 16.3299 20.299 16.4994 20.186L19.8744 17.936C20.0285 17.8333 20.1548 17.6941 20.2422 17.5308C20.3295 17.3675 20.3753 17.1852 20.3753 17C20.3753 16.8148 20.3295 16.6325 20.2422 16.4692C20.1548 16.3059 20.0285 16.1667 19.8744 16.064L16.4994 13.814V13.814Z" fill="#44554E"/>
</g>
<defs>
<clipPath id="clip0_15102_1307">
<rect width="18" height="18" fill="white" transform="translate(8 8)"/>
</clipPath>
</defs>
</svg>
