<svg width="34" height="34" viewBox="0 0 34 34" fill="none" xmlns="http://www.w3.org/2000/svg">
<path d="M0 17C0 7.61116 7.61116 0 17 0V0C26.3888 0 34 7.61116 34 17V17C34 26.3888 26.3888 34 17 34V34C7.61116 34 0 26.3888 0 17V17Z" fill="#A1B5A0"/>
<path d="M14.2004 10H13.2671C12.2361 10 11.4004 10.7835 11.4004 11.75V22.25C11.4004 23.2165 12.2361 24 13.2671 24H14.2004C15.2313 24 16.0671 23.2165 16.0671 22.25V11.75C16.0671 10.7835 15.2313 10 14.2004 10Z" fill="#344835"/>
<path d="M20.7337 10H19.8004C18.7695 10 17.9337 10.7835 17.9337 11.75V22.25C17.9337 23.2165 18.7695 24 19.8004 24H20.7337C21.7647 24 22.6004 23.2165 22.6004 22.25V11.75C22.6004 10.7835 21.7647 10 20.7337 10Z" fill="#344835"/>
</svg>
