<svg xmlns="http://www.w3.org/2000/svg" xmlns:xlink="http://www.w3.org/1999/xlink" width="100" zoomAndPan="magnify" viewBox="0 0 75 30.000001" height="40" preserveAspectRatio="xMidYMid meet" version="1.0"><defs><clipPath id="a8ff84c736"><path d="M 2 8.589844 L 13 8.589844 L 13 20.199219 L 2 20.199219 Z M 2 8.589844 " clip-rule="nonzero"/></clipPath><clipPath id="e91036574c"><path d="M 16 9 L 22 9 L 22 20.199219 L 16 20.199219 Z M 16 9 " clip-rule="nonzero"/></clipPath><clipPath id="580438a64a"><path d="M 22 9 L 29 9 L 29 20.199219 L 22 20.199219 Z M 22 9 " clip-rule="nonzero"/></clipPath><clipPath id="4564c00e91"><path d="M 29 8.589844 L 36 8.589844 L 36 20 L 29 20 Z M 29 8.589844 " clip-rule="nonzero"/></clipPath><clipPath id="a7a8badb82"><path d="M 36 9 L 43 9 L 43 20.199219 L 36 20.199219 Z M 36 9 " clip-rule="nonzero"/></clipPath><clipPath id="fc9d5fa4c2"><path d="M 43 9 L 50 9 L 50 20.199219 L 43 20.199219 Z M 43 9 " clip-rule="nonzero"/></clipPath><clipPath id="3e37800ae3"><path d="M 50 9 L 53 9 L 53 20.199219 L 50 20.199219 Z M 50 9 " clip-rule="nonzero"/></clipPath><clipPath id="dba65ba687"><path d="M 53 9 L 60 9 L 60 20.199219 L 53 20.199219 Z M 53 9 " clip-rule="nonzero"/></clipPath><clipPath id="0a62e464ed"><path d="M 60 9 L 67 9 L 67 20.199219 L 60 20.199219 Z M 60 9 " clip-rule="nonzero"/></clipPath><clipPath id="469cc07ae4"><path d="M 66 9 L 73 9 L 73 20.199219 L 66 20.199219 Z M 66 9 " clip-rule="nonzero"/></clipPath></defs><g clip-path="url(#a8ff84c736)"><path fill="#fbc218" d="M 7.71875 10.214844 C 7.8125 9.894531 7.914062 9.65625 8.074219 9.414062 C 8.257812 9.152344 8.429688 8.980469 8.65625 8.890625 C 8.757812 8.84375 9.160156 9.222656 9.25 9.222656 C 9.742188 9.246094 9.910156 9.300781 10.140625 10.054688 C 10.1875 10.214844 10.253906 10.601562 10.265625 10.773438 C 10.289062 11.21875 10.253906 11.640625 10.140625 12.050781 C 9.992188 12.601562 9.742188 13.023438 9.421875 13.261719 C 9.273438 13.375 9.203125 13.398438 9.03125 13.433594 C 8.894531 13.457031 8.882812 13.457031 8.78125 13.445312 C 8.726562 13.445312 8.644531 13.421875 8.609375 13.410156 C 8.257812 13.285156 8.199219 13.195312 7.996094 12.632812 C 7.949219 12.496094 7.605469 11.734375 7.59375 11.5625 C 7.5625 11.058594 7.59375 10.636719 7.71875 10.203125 Z M 4.605469 9.792969 C 4.695312 9.699219 4.820312 9.609375 4.9375 9.574219 C 5.050781 9.542969 5.1875 9.53125 5.324219 9.542969 C 5.804688 9.609375 6.328125 10.078125 6.691406 10.75 C 6.875 11.09375 6.785156 11.332031 6.851562 11.722656 C 6.957031 12.210938 7.171875 12.78125 7.070312 13.171875 C 6.957031 13.617188 6.703125 13.914062 6.375 14.003906 C 6.238281 14.039062 6.019531 14.039062 5.871094 13.980469 C 5.699219 13.925781 5.519531 13.820312 5.371094 13.695312 C 4.945312 13.339844 4.605469 12.804688 4.386719 12.132812 C 4.332031 11.949219 4.355469 11.4375 4.34375 11.265625 C 4.296875 10.589844 4.308594 10.078125 4.605469 9.78125 Z M 3.542969 16.355469 C 3.085938 16.035156 2.722656 15.53125 2.480469 14.929688 C 2.4375 14.800781 2.425781 14.757812 2.378906 14.507812 C 2.320312 14.199219 2.171875 14.128906 2.171875 13.671875 C 2.171875 13.214844 2.5625 13.035156 2.902344 12.875 C 3.007812 12.828125 3.199219 12.78125 3.328125 12.78125 C 3.886719 12.792969 5.015625 14.128906 5.128906 14.472656 C 5.242188 14.8125 5.527344 16.113281 5.359375 16.183594 C 5.1875 16.253906 4.777344 16.640625 4.492188 16.664062 C 4.171875 16.6875 3.863281 16.582031 3.53125 16.355469 Z M 12.226562 18.476562 C 12.171875 18.570312 12 18.785156 11.898438 18.886719 C 11.691406 19.105469 11.441406 19.265625 11.179688 19.367188 C 11.054688 19.414062 10.789062 19.46875 10.652344 19.480469 C 10.425781 19.480469 10.046875 19.734375 9.707031 19.617188 C 9.363281 19.503906 8.941406 19.21875 8.726562 19.265625 C 8.566406 19.300781 8.566406 19.300781 8.40625 19.367188 C 8.3125 19.402344 8.085938 19.503906 7.914062 19.585938 C 7.242188 19.894531 7.207031 20.109375 6.820312 20.222656 C 6.625 20.28125 6.238281 20.359375 6.078125 20.371094 C 5.734375 20.394531 5.4375 20.359375 5.175781 20.257812 C 5.074219 20.210938 4.902344 20.132812 4.84375 20.074219 C 4.546875 19.835938 4.523438 19.21875 4.558594 18.785156 C 4.59375 18.351562 4.84375 17.734375 5.085938 17.234375 C 5.390625 16.582031 6.15625 15.714844 6.292969 15.441406 C 6.429688 15.167969 7.148438 14.6875 7.550781 14.550781 C 7.652344 14.515625 7.890625 14.472656 7.996094 14.460938 C 8.359375 14.425781 9.398438 14.699219 9.511719 14.8125 C 9.625 14.929688 10.859375 15.671875 11.464844 16.332031 C 11.933594 16.855469 12.207031 17.289062 12.332031 17.714844 C 12.421875 18.019531 12.398438 18.273438 12.273438 18.476562 Z M 12.445312 14.585938 C 12.238281 14.90625 12.011719 15.328125 11.738281 15.453125 C 11.644531 15.488281 11.429688 15.53125 11.339844 15.523438 C 10.9375 15.5 10.585938 15.203125 10.390625 14.710938 C 10.3125 14.527344 10.09375 14.359375 10.058594 14.128906 C 10.003906 13.765625 10.1875 13.480469 10.253906 13.101562 C 10.390625 12.324219 10.699219 11.617188 11.203125 11.390625 C 11.316406 11.34375 11.625 11.378906 11.738281 11.390625 C 12.113281 11.402344 12.457031 11.664062 12.664062 12.097656 C 13.039062 12.886719 12.957031 13.820312 12.457031 14.585938 Z M 12.445312 14.585938 " fill-opacity="1" fill-rule="nonzero"/></g><g clip-path="url(#e91036574c)"><path fill="#fbc218" d="M 21.957031 20.121094 L 21.898438 20.179688 L 21.570312 20.179688 L 20.777344 20.058594 L 20.582031 20.089844 L 20.269531 19.761719 L 20.300781 19.191406 L 20.179688 19.117188 L 20.179688 18.996094 L 20.253906 18.917969 L 19.984375 18.480469 L 20.0625 18.257812 L 19.582031 18.378906 L 19.207031 18.347656 L 18.097656 18.390625 L 17.949219 18.199219 L 17.78125 18.636719 L 17.542969 19.609375 L 17.484375 20.136719 L 16.003906 20 L 16.574219 15.28125 L 17.234375 11.792969 L 17.382812 11.332031 L 17.382812 10.703125 L 17.484375 10.582031 L 17.484375 10.144531 L 17.632812 9.863281 L 17.722656 9.175781 L 19.804688 9.265625 L 19.863281 9.835938 L 19.984375 10.226562 L 20.132812 10.527344 L 20.210938 10.585938 L 20.210938 11.203125 L 20.390625 11.503906 L 20.359375 11.832031 L 20.460938 11.816406 L 20.777344 13.359375 L 20.910156 13.539062 L 21.105469 14.695312 L 21.296875 15.414062 L 21.253906 15.535156 L 21.554688 16.65625 L 21.644531 17.195312 L 21.675781 17.722656 L 21.824219 18.007812 L 21.824219 18.082031 L 21.746094 18.203125 L 21.804688 18.371094 L 21.894531 19.328125 L 21.953125 20.136719 Z M 19.023438 11.972656 L 18.84375 11.972656 L 18.453125 15.523438 L 18.585938 15.523438 L 18.585938 15.613281 L 18.347656 16.140625 L 18.214844 16.621094 L 18.527344 16.5625 L 19.730469 16.488281 L 19.023438 11.980469 Z M 19.023438 11.972656 " fill-opacity="1" fill-rule="nonzero"/></g><g clip-path="url(#580438a64a)"><path fill="#fbc218" d="M 28.242188 11.402344 L 28.242188 9.367188 L 28.285156 9.203125 L 28.152344 9.023438 L 22.609375 9.023438 L 22.578125 9.246094 L 22.578125 10.851562 L 22.519531 12.210938 L 22.699219 14.535156 L 22.699219 19.539062 L 22.65625 20.019531 L 24.242188 20.019531 L 24.195312 19.613281 L 24.195312 18.703125 L 24.34375 18.148438 L 24.210938 17.957031 L 24.34375 17.867188 L 24.253906 17.359375 L 24.300781 17.222656 L 24.300781 17.058594 L 24.210938 16.730469 L 24.300781 16.519531 L 24.164062 14.738281 L 24.332031 14.664062 L 24.570312 14.707031 L 25.050781 14.707031 L 25.261719 14.664062 L 26.867188 20.101562 L 28.246094 20.101562 L 27.738281 17.597656 L 27.78125 17.417969 L 27.195312 14.6875 L 28.277344 14.605469 L 28.277344 11.726562 L 28.335938 11.472656 L 28.246094 11.414062 Z M 25.324219 10.027344 C 25.359375 9.902344 25.402344 9.808594 25.464844 9.714844 C 25.535156 9.609375 25.601562 9.542969 25.691406 9.507812 C 25.734375 9.488281 25.890625 9.636719 25.925781 9.636719 C 26.121094 9.648438 26.1875 9.667969 26.277344 9.964844 C 26.296875 10.027344 26.320312 10.179688 26.328125 10.25 C 26.335938 10.425781 26.320312 10.589844 26.277344 10.753906 C 26.21875 10.96875 26.121094 11.132812 25.992188 11.226562 C 25.9375 11.273438 25.910156 11.28125 25.839844 11.296875 C 25.789062 11.304688 25.78125 11.304688 25.742188 11.300781 C 25.71875 11.300781 25.6875 11.292969 25.675781 11.285156 C 25.535156 11.238281 25.511719 11.203125 25.433594 10.980469 C 25.414062 10.925781 25.28125 10.625 25.273438 10.558594 C 25.261719 10.359375 25.273438 10.195312 25.324219 10.023438 Z M 24.097656 9.863281 C 24.132812 9.828125 24.183594 9.789062 24.226562 9.777344 C 24.273438 9.761719 24.328125 9.757812 24.378906 9.761719 C 24.570312 9.789062 24.777344 9.972656 24.917969 10.238281 C 24.992188 10.375 24.957031 10.46875 24.984375 10.621094 C 25.023438 10.816406 25.109375 11.039062 25.066406 11.191406 C 25.023438 11.367188 24.925781 11.484375 24.792969 11.519531 C 24.738281 11.535156 24.65625 11.535156 24.597656 11.511719 C 24.527344 11.488281 24.457031 11.449219 24.398438 11.398438 C 24.230469 11.261719 24.097656 11.046875 24.011719 10.785156 C 23.988281 10.710938 24 10.507812 23.992188 10.441406 C 23.976562 10.175781 23.980469 9.972656 24.097656 9.859375 Z M 23.679688 12.445312 C 23.5 12.320312 23.355469 12.121094 23.261719 11.882812 C 23.242188 11.835938 23.238281 11.816406 23.222656 11.71875 C 23.199219 11.597656 23.140625 11.570312 23.140625 11.390625 C 23.140625 11.210938 23.292969 11.136719 23.429688 11.074219 C 23.46875 11.058594 23.542969 11.039062 23.59375 11.039062 C 23.8125 11.042969 24.257812 11.570312 24.304688 11.703125 C 24.347656 11.839844 24.460938 12.351562 24.394531 12.378906 C 24.328125 12.40625 24.164062 12.558594 24.050781 12.566406 C 23.925781 12.578125 23.804688 12.535156 23.675781 12.445312 Z M 27.101562 13.28125 C 27.078125 13.316406 27.007812 13.402344 26.96875 13.445312 C 26.886719 13.53125 26.789062 13.59375 26.6875 13.632812 C 26.636719 13.652344 26.535156 13.671875 26.480469 13.679688 C 26.390625 13.679688 26.242188 13.777344 26.105469 13.730469 C 25.972656 13.6875 25.804688 13.574219 25.71875 13.59375 C 25.65625 13.605469 25.65625 13.605469 25.59375 13.632812 C 25.558594 13.644531 25.46875 13.6875 25.402344 13.71875 C 25.136719 13.839844 25.121094 13.925781 24.96875 13.96875 C 24.894531 13.992188 24.738281 14.023438 24.675781 14.027344 C 24.542969 14.039062 24.425781 14.023438 24.320312 13.984375 C 24.28125 13.964844 24.214844 13.933594 24.191406 13.910156 C 24.074219 13.816406 24.066406 13.574219 24.078125 13.402344 C 24.09375 13.234375 24.191406 12.992188 24.285156 12.792969 C 24.40625 12.535156 24.707031 12.195312 24.761719 12.085938 C 24.816406 11.980469 25.101562 11.789062 25.257812 11.738281 C 25.296875 11.722656 25.390625 11.703125 25.433594 11.699219 C 25.574219 11.6875 25.984375 11.792969 26.03125 11.839844 C 26.074219 11.882812 26.558594 12.175781 26.796875 12.4375 C 26.984375 12.644531 27.089844 12.816406 27.140625 12.980469 C 27.175781 13.101562 27.167969 13.203125 27.117188 13.28125 Z M 27.183594 11.75 C 27.105469 11.875 27.015625 12.042969 26.90625 12.089844 C 26.871094 12.105469 26.785156 12.121094 26.75 12.117188 C 26.589844 12.109375 26.453125 11.992188 26.375 11.800781 C 26.34375 11.726562 26.257812 11.660156 26.246094 11.570312 C 26.222656 11.425781 26.296875 11.3125 26.320312 11.164062 C 26.375 10.859375 26.496094 10.582031 26.695312 10.492188 C 26.738281 10.472656 26.863281 10.488281 26.90625 10.492188 C 27.054688 10.496094 27.191406 10.597656 27.269531 10.769531 C 27.417969 11.082031 27.386719 11.449219 27.191406 11.75 Z M 27.183594 11.75 " fill-opacity="1" fill-rule="nonzero"/></g><g clip-path="url(#4564c00e91)"><path fill="#fbc218" d="M 35.4375 19.871094 L 35.332031 19.972656 L 34 19.851562 L 30.75 19.851562 L 30.121094 19.882812 L 30.03125 19.242188 L 29.910156 17.773438 L 29.910156 16.515625 L 29.851562 16.210938 L 29.925781 15.433594 L 29.835938 15.164062 L 29.835938 13.726562 L 29.984375 13.21875 L 29.984375 11.75 L 29.804688 11.539062 L 29.910156 11.449219 L 29.910156 8.933594 L 34.835938 8.933594 L 35.105469 8.886719 L 35.375 9.144531 L 35.285156 9.488281 L 35.285156 11.78125 L 34.894531 11.722656 L 34.621094 11.589844 L 34.488281 11.601562 L 34.410156 11.480469 L 34.140625 11.554688 L 33.976562 11.554688 L 33.660156 11.464844 L 33.660156 11.363281 L 33.71875 11.105469 L 33.71875 10.433594 L 31.382812 10.433594 L 31.382812 11.226562 L 31.59375 13.417969 L 31.503906 13.628906 L 31.503906 16.96875 L 31.425781 17.042969 L 31.550781 17.164062 L 31.460938 17.421875 L 31.460938 17.679688 L 31.550781 17.722656 L 31.503906 18.320312 L 32 18.398438 L 33.917969 18.398438 L 33.917969 17.136719 L 35.433594 16.746094 L 35.433594 19.875 Z M 35.4375 19.871094 " fill-opacity="1" fill-rule="nonzero"/></g><g clip-path="url(#a7a8badb82)"><path fill="#fbc218" d="M 41.113281 20.332031 L 40.617188 18.265625 L 38.148438 18.265625 L 37.800781 20.257812 L 36.40625 20.257812 L 37.5 12.199219 L 37.574219 12.167969 L 37.753906 11.148438 L 38.039062 10.171875 L 38.113281 9.304688 L 39.554688 9.304688 L 40.167969 9.261719 L 40.273438 9.589844 L 40.257812 9.917969 L 40.347656 9.992188 L 40.664062 11.101562 L 41.054688 12.824219 L 41.875 17.242188 L 42.371094 20.324219 L 41.113281 20.324219 Z M 40.304688 16.5 L 39.269531 11.800781 L 39.269531 12.863281 L 38.550781 16.503906 L 40.304688 16.503906 Z M 40.304688 16.5 " fill-opacity="1" fill-rule="nonzero"/></g><g clip-path="url(#fc9d5fa4c2)"><path fill="#fbc218" d="M 49.363281 15.679688 L 49.421875 15.734375 L 49.347656 15.960938 L 49.390625 16.007812 L 49.300781 17.519531 L 49.40625 17.6875 L 49.300781 17.730469 L 49.300781 17.898438 L 49.421875 17.957031 L 49.300781 18.105469 L 49.226562 18.40625 L 49.167969 20.113281 L 47.457031 20.113281 L 47.367188 19.933594 L 47.414062 19.800781 L 46.859375 18.644531 L 46.097656 16.859375 L 45.273438 14.714844 L 44.960938 13.714844 L 44.960938 14.761719 L 45.050781 14.972656 L 44.972656 15.40625 L 45.09375 16.308594 L 45.082031 16.429688 L 45.125 16.53125 L 45.003906 19.929688 L 44.75 20.007812 L 44.164062 20.007812 L 44.089844 19.929688 L 43.964844 19.972656 L 43.636719 19.972656 L 43.414062 19.929688 L 43.15625 12.847656 L 43.15625 10.746094 L 43.335938 9.085938 L 43.710938 9.160156 L 44.472656 9.160156 L 44.730469 9.070312 L 45.855469 11.554688 L 45.945312 11.613281 L 45.914062 11.671875 L 46.078125 12.03125 L 46.09375 12.210938 L 46.601562 13.277344 L 47.421875 15.660156 L 47.5 15.734375 L 47.230469 9.476562 L 47.363281 9.117188 L 48.9375 9.117188 L 49.117188 10.992188 L 49.117188 11.425781 L 49.238281 12.550781 L 49.296875 12.609375 L 49.296875 12.757812 L 49.207031 12.800781 L 49.355469 15.679688 Z M 49.363281 15.679688 " fill-opacity="1" fill-rule="nonzero"/></g><g clip-path="url(#3e37800ae3)"><path fill="#fbc218" d="M 52.433594 9.191406 L 52.433594 18.792969 L 52.300781 20.378906 L 50.488281 20.140625 L 50.488281 9.386719 L 50.351562 9.339844 L 50.636719 9.191406 Z M 52.433594 9.191406 " fill-opacity="1" fill-rule="nonzero"/></g><g clip-path="url(#dba65ba687)"><path fill="#fbc218" d="M 59.441406 15.824219 L 59.394531 15.882812 L 59.394531 16.4375 L 59.351562 16.71875 L 59.441406 16.84375 L 59.441406 17.023438 L 59.382812 17.007812 L 59.351562 17.335938 L 59.410156 17.394531 L 59.320312 18.203125 L 59.320312 19.101562 L 59.214844 19.25 L 59.214844 20.164062 L 59.125 20.355469 L 57.972656 20.355469 L 57.714844 20.265625 L 57.546875 20.164062 L 57.546875 16.046875 L 57.671875 14.25 L 57.339844 15.328125 L 57.21875 16.015625 L 56.996094 16.65625 L 56.917969 17.421875 L 56.679688 17.542969 L 56.457031 17.484375 L 56.246094 16.628906 L 55.289062 13.980469 L 55.410156 16.375 L 55.410156 18.769531 L 55.261719 20.132812 L 55.203125 20.265625 L 53.929688 20.265625 L 53.660156 19.414062 L 53.660156 9.8125 L 53.886719 9.242188 L 54.007812 9.152344 L 55.039062 9.105469 L 56.265625 11.816406 L 56.503906 12.714844 L 56.503906 12.613281 L 56.628906 12.328125 L 57.019531 10.472656 L 57.183594 10.308594 L 57.589844 9.152344 L 59.039062 9.152344 L 59.339844 11.636719 L 59.386719 11.636719 L 59.386719 11.714844 L 59.308594 11.789062 L 59.398438 12.089844 L 59.398438 13.5625 L 59.488281 13.726562 L 59.386719 13.984375 L 59.445312 15.824219 Z M 59.441406 15.824219 " fill-opacity="1" fill-rule="nonzero"/></g><g clip-path="url(#0a62e464ed)"><path fill="#fbc218" d="M 65.011719 20.332031 L 64.519531 18.265625 L 62.046875 18.265625 L 61.699219 20.257812 L 60.308594 20.257812 L 61.398438 12.199219 L 61.476562 12.167969 L 61.65625 11.148438 L 61.9375 10.171875 L 62.015625 9.304688 L 63.453125 9.304688 L 64.070312 9.261719 L 64.171875 9.589844 L 64.160156 9.917969 L 64.25 9.992188 L 64.5625 11.101562 L 64.953125 12.824219 L 65.777344 17.242188 L 66.273438 20.324219 L 65.011719 20.324219 Z M 64.203125 16.5 L 63.171875 11.800781 L 63.171875 12.863281 L 62.453125 16.503906 L 64.203125 16.503906 Z M 64.203125 16.5 " fill-opacity="1" fill-rule="nonzero"/></g><g clip-path="url(#469cc07ae4)"><path fill="#fbc218" d="M 72.828125 20.242188 L 66.792969 20.242188 L 66.792969 11.171875 L 66.71875 9.550781 L 66.660156 9.222656 L 68.367188 9.222656 L 68.277344 10 L 68.277344 10.496094 L 68.515625 10.507812 L 68.515625 14.105469 L 68.636719 14.238281 L 68.636719 17.117188 L 68.578125 18.058594 L 68.5 18.40625 L 68.605469 18.480469 L 68.617188 18.570312 L 70.832031 18.480469 L 70.863281 18.347656 L 70.953125 18.359375 L 71.03125 18.4375 L 72.828125 18.4375 L 72.828125 20.25 Z M 72.828125 20.242188 " fill-opacity="1" fill-rule="nonzero"/></g></svg>