<svg xmlns="http://www.w3.org/2000/svg" xmlns:xlink="http://www.w3.org/1999/xlink" width="100" zoomAndPan="magnify" viewBox="0 0 75 30.000001" height="40" preserveAspectRatio="xMidYMid meet" version="1.0"><defs><clipPath id="2599d2906b"><path d="M 65 8 L 72.503906 8 L 72.503906 19 L 65 19 Z M 65 8 " clip-rule="nonzero"/></clipPath><clipPath id="8f4e9dc9fb"><path d="M 2.644531 15 L 16 15 L 16 22.207031 L 2.644531 22.207031 Z M 2.644531 15 " clip-rule="nonzero"/></clipPath><clipPath id="2a408df8b0"><path d="M 2.644531 15 L 12 15 L 12 22.207031 L 2.644531 22.207031 Z M 2.644531 15 " clip-rule="nonzero"/></clipPath><clipPath id="23af458632"><path d="M 2.644531 7.429688 L 16 7.429688 L 16 15 L 2.644531 15 Z M 2.644531 7.429688 " clip-rule="nonzero"/></clipPath><clipPath id="f808af5521"><path d="M 6 7.429688 L 16 7.429688 L 16 15 L 6 15 Z M 6 7.429688 " clip-rule="nonzero"/></clipPath><clipPath id="75a98bc7e3"><path d="M 7 7.429688 L 11 7.429688 L 11 11 L 7 11 Z M 7 7.429688 " clip-rule="nonzero"/></clipPath></defs><path fill="#000000" d="M 21.34375 17.617188 C 20.917969 17.953125 20.507812 18.203125 20.113281 18.371094 C 19.714844 18.539062 19.273438 18.625 18.78125 18.625 C 18.328125 18.625 17.933594 18.53125 17.59375 18.351562 C 17.253906 18.171875 16.992188 17.925781 16.808594 17.617188 C 16.621094 17.304688 16.53125 16.96875 16.53125 16.609375 C 16.53125 16.117188 16.683594 15.703125 16.988281 15.359375 C 17.292969 15.011719 17.707031 14.78125 18.238281 14.664062 C 18.351562 14.636719 18.628906 14.578125 19.070312 14.488281 C 19.511719 14.394531 19.886719 14.3125 20.203125 14.234375 C 20.519531 14.160156 20.859375 14.066406 21.226562 13.957031 C 21.207031 13.484375 21.113281 13.140625 20.949219 12.921875 C 20.785156 12.699219 20.441406 12.589844 19.921875 12.589844 C 19.476562 12.589844 19.144531 12.652344 18.917969 12.78125 C 18.691406 12.90625 18.5 13.09375 18.339844 13.347656 C 18.179688 13.601562 18.066406 13.769531 18 13.847656 C 17.933594 13.929688 17.789062 13.96875 17.570312 13.96875 C 17.375 13.96875 17.203125 13.90625 17.0625 13.777344 C 16.917969 13.648438 16.84375 13.484375 16.84375 13.285156 C 16.84375 12.96875 16.953125 12.664062 17.171875 12.367188 C 17.390625 12.070312 17.730469 11.828125 18.195312 11.632812 C 18.65625 11.441406 19.234375 11.347656 19.921875 11.347656 C 20.695312 11.347656 21.300781 11.4375 21.742188 11.625 C 22.183594 11.808594 22.496094 12.101562 22.675781 12.503906 C 22.859375 12.90625 22.949219 13.4375 22.949219 14.101562 C 22.949219 14.519531 22.949219 14.875 22.945312 15.167969 C 22.945312 15.460938 22.941406 15.785156 22.9375 16.144531 C 22.9375 16.480469 22.992188 16.828125 23.101562 17.195312 C 23.210938 17.558594 23.265625 17.792969 23.265625 17.898438 C 23.265625 18.082031 23.179688 18.246094 23.011719 18.398438 C 22.839844 18.546875 22.648438 18.625 22.4375 18.625 C 22.257812 18.625 22.078125 18.539062 21.902344 18.363281 C 21.726562 18.191406 21.539062 17.941406 21.34375 17.617188 Z M 21.226562 15.03125 C 20.972656 15.125 20.597656 15.226562 20.105469 15.335938 C 19.617188 15.441406 19.277344 15.519531 19.089844 15.570312 C 18.898438 15.621094 18.71875 15.71875 18.546875 15.863281 C 18.378906 16.011719 18.292969 16.214844 18.292969 16.476562 C 18.292969 16.746094 18.390625 16.976562 18.59375 17.167969 C 18.792969 17.355469 19.058594 17.453125 19.382812 17.453125 C 19.730469 17.453125 20.050781 17.375 20.34375 17.21875 C 20.636719 17.066406 20.851562 16.863281 20.988281 16.621094 C 21.148438 16.351562 21.226562 15.90625 21.226562 15.285156 Z M 21.226562 15.03125 " fill-opacity="1" fill-rule="evenodd"/><path fill="#000000" d="M 35.550781 15.429688 L 32.117188 15.429688 C 32.121094 15.835938 32.203125 16.191406 32.359375 16.503906 C 32.515625 16.8125 32.722656 17.046875 32.980469 17.203125 C 33.242188 17.359375 33.527344 17.4375 33.839844 17.4375 C 34.050781 17.4375 34.242188 17.414062 34.414062 17.363281 C 34.589844 17.3125 34.757812 17.234375 34.917969 17.128906 C 35.082031 17.019531 35.230469 16.90625 35.367188 16.785156 C 35.507812 16.664062 35.683594 16.496094 35.902344 16.285156 C 35.992188 16.207031 36.121094 16.167969 36.289062 16.167969 C 36.46875 16.167969 36.613281 16.21875 36.726562 16.320312 C 36.835938 16.421875 36.890625 16.5625 36.890625 16.746094 C 36.890625 16.90625 36.828125 17.09375 36.707031 17.3125 C 36.582031 17.527344 36.394531 17.734375 36.144531 17.933594 C 35.894531 18.132812 35.578125 18.296875 35.199219 18.425781 C 34.820312 18.558594 34.382812 18.625 33.890625 18.625 C 32.765625 18.625 31.886719 18.296875 31.261719 17.640625 C 30.636719 16.988281 30.324219 16.097656 30.324219 14.976562 C 30.324219 14.449219 30.402344 13.960938 30.554688 13.507812 C 30.710938 13.058594 30.933594 12.671875 31.230469 12.347656 C 31.527344 12.023438 31.890625 11.777344 32.324219 11.605469 C 32.757812 11.433594 33.234375 11.347656 33.761719 11.347656 C 34.449219 11.347656 35.035156 11.492188 35.527344 11.789062 C 36.015625 12.082031 36.382812 12.464844 36.628906 12.929688 C 36.871094 13.398438 36.996094 13.871094 36.996094 14.355469 C 36.996094 14.804688 36.867188 15.097656 36.617188 15.230469 C 36.363281 15.363281 36.007812 15.429688 35.550781 15.429688 Z M 32.117188 14.414062 L 35.296875 14.414062 C 35.253906 13.804688 35.09375 13.347656 34.8125 13.042969 C 34.53125 12.742188 34.164062 12.589844 33.703125 12.589844 C 33.269531 12.589844 32.910156 12.742188 32.628906 13.050781 C 32.347656 13.359375 32.175781 13.8125 32.117188 14.414062 Z M 32.117188 14.414062 " fill-opacity="1" fill-rule="evenodd"/><path fill="#000000" d="M 43.519531 17.554688 C 43.28125 17.90625 42.933594 18.171875 42.472656 18.351562 C 42.015625 18.53125 41.453125 18.625 40.792969 18.625 C 40.164062 18.625 39.625 18.523438 39.175781 18.328125 C 38.726562 18.132812 38.394531 17.886719 38.179688 17.59375 C 37.964844 17.296875 37.859375 17.003906 37.859375 16.707031 C 37.859375 16.507812 37.925781 16.339844 38.0625 16.203125 C 38.199219 16.0625 38.375 15.992188 38.582031 15.992188 C 38.769531 15.992188 38.910156 16.039062 39.007812 16.128906 C 39.105469 16.222656 39.199219 16.351562 39.289062 16.515625 C 39.46875 16.835938 39.6875 17.074219 39.9375 17.230469 C 40.1875 17.386719 40.527344 17.464844 40.960938 17.464844 C 41.3125 17.464844 41.601562 17.386719 41.824219 17.226562 C 42.050781 17.066406 42.164062 16.882812 42.164062 16.679688 C 42.164062 16.367188 42.046875 16.136719 41.8125 15.992188 C 41.578125 15.847656 41.195312 15.710938 40.660156 15.582031 C 40.054688 15.425781 39.5625 15.265625 39.183594 15.097656 C 38.804688 14.929688 38.503906 14.710938 38.273438 14.433594 C 38.046875 14.160156 37.933594 13.820312 37.933594 13.421875 C 37.933594 13.0625 38.039062 12.726562 38.25 12.40625 C 38.460938 12.089844 38.769531 11.832031 39.179688 11.644531 C 39.585938 11.453125 40.082031 11.359375 40.660156 11.359375 C 41.113281 11.359375 41.519531 11.40625 41.882812 11.503906 C 42.246094 11.597656 42.546875 11.726562 42.789062 11.890625 C 43.03125 12.050781 43.214844 12.230469 43.34375 12.425781 C 43.46875 12.621094 43.53125 12.8125 43.53125 13.003906 C 43.53125 13.207031 43.464844 13.375 43.328125 13.507812 C 43.195312 13.636719 43.003906 13.703125 42.753906 13.703125 C 42.574219 13.703125 42.421875 13.648438 42.292969 13.546875 C 42.167969 13.441406 42.023438 13.285156 41.859375 13.074219 C 41.726562 12.898438 41.570312 12.757812 41.390625 12.65625 C 41.210938 12.550781 40.96875 12.5 40.660156 12.5 C 40.34375 12.5 40.078125 12.566406 39.867188 12.703125 C 39.660156 12.839844 39.554688 13.011719 39.554688 13.21875 C 39.554688 13.40625 39.632812 13.558594 39.785156 13.679688 C 39.9375 13.800781 40.148438 13.898438 40.410156 13.976562 C 40.667969 14.054688 41.03125 14.152344 41.488281 14.265625 C 42.03125 14.398438 42.476562 14.5625 42.820312 14.75 C 43.167969 14.9375 43.425781 15.160156 43.605469 15.414062 C 43.78125 15.667969 43.871094 15.960938 43.871094 16.285156 C 43.871094 16.78125 43.753906 17.203125 43.519531 17.554688 Z M 43.519531 17.554688 " fill-opacity="1" fill-rule="evenodd"/><path fill="#000000" d="M 50.753906 16.285156 C 50.753906 16.78125 50.636719 17.203125 50.402344 17.554688 C 50.167969 17.90625 49.820312 18.171875 49.359375 18.351562 C 48.898438 18.53125 48.335938 18.625 47.675781 18.625 C 47.046875 18.625 46.507812 18.523438 46.058594 18.328125 C 45.609375 18.132812 45.277344 17.886719 45.0625 17.59375 C 44.847656 17.296875 44.742188 17.003906 44.742188 16.707031 C 44.742188 16.507812 44.808594 16.339844 44.945312 16.203125 C 45.082031 16.0625 45.257812 15.992188 45.46875 15.992188 C 45.652344 15.992188 45.792969 16.039062 45.890625 16.128906 C 45.988281 16.222656 46.085938 16.351562 46.175781 16.515625 C 46.355469 16.835938 46.570312 17.074219 46.820312 17.230469 C 47.070312 17.386719 47.410156 17.464844 47.84375 17.464844 C 48.195312 17.464844 48.484375 17.386719 48.710938 17.226562 C 48.933594 17.066406 49.046875 16.882812 49.046875 16.679688 C 49.046875 16.367188 48.929688 16.136719 48.695312 15.992188 C 48.460938 15.847656 48.078125 15.710938 47.542969 15.582031 C 46.9375 15.425781 46.445312 15.265625 46.066406 15.097656 C 45.6875 14.929688 45.386719 14.710938 45.160156 14.433594 C 44.933594 14.160156 44.816406 13.820312 44.816406 13.421875 C 44.816406 13.0625 44.921875 12.726562 45.132812 12.40625 C 45.34375 12.089844 45.652344 11.832031 46.0625 11.644531 C 46.46875 11.453125 46.964844 11.359375 47.542969 11.359375 C 47.996094 11.359375 48.40625 11.40625 48.765625 11.503906 C 49.128906 11.597656 49.429688 11.726562 49.671875 11.890625 C 49.914062 12.050781 50.097656 12.230469 50.226562 12.425781 C 50.351562 12.621094 50.414062 12.8125 50.414062 13.003906 C 50.414062 13.207031 50.347656 13.375 50.210938 13.507812 C 50.078125 13.636719 49.886719 13.703125 49.636719 13.703125 C 49.457031 13.703125 49.304688 13.648438 49.179688 13.546875 C 49.050781 13.441406 48.90625 13.285156 48.746094 13.074219 C 48.613281 12.898438 48.453125 12.757812 48.277344 12.65625 C 48.09375 12.550781 47.851562 12.5 47.542969 12.5 C 47.226562 12.5 46.960938 12.566406 46.753906 12.703125 C 46.542969 12.839844 46.4375 13.011719 46.4375 13.21875 C 46.4375 13.40625 46.515625 13.558594 46.667969 13.679688 C 46.824219 13.800781 47.03125 13.898438 47.292969 13.976562 C 47.554688 14.054688 47.914062 14.152344 48.371094 14.265625 C 48.914062 14.398438 49.359375 14.5625 49.707031 14.75 C 50.050781 14.9375 50.3125 15.160156 50.488281 15.414062 C 50.667969 15.667969 50.753906 15.960938 50.753906 16.285156 Z M 50.753906 16.285156 " fill-opacity="1" fill-rule="evenodd"/><path fill="#000000" d="M 54.910156 17.535156 L 54.910156 9.789062 C 54.910156 9.429688 54.984375 9.160156 55.144531 8.976562 C 55.300781 8.792969 55.511719 8.703125 55.777344 8.703125 C 56.042969 8.703125 56.253906 8.792969 56.417969 8.972656 C 56.582031 9.15625 56.664062 9.425781 56.664062 9.789062 L 56.664062 17.535156 C 56.664062 17.898438 56.578125 18.171875 56.414062 18.351562 C 56.25 18.53125 56.035156 18.625 55.777344 18.625 C 55.519531 18.625 55.308594 18.53125 55.148438 18.34375 C 54.988281 18.15625 54.910156 17.886719 54.910156 17.535156 Z M 54.910156 17.535156 " fill-opacity="1" fill-rule="evenodd"/><path fill="#000000" d="M 62.660156 17.617188 C 62.234375 17.953125 61.824219 18.203125 61.429688 18.371094 C 61.03125 18.539062 60.589844 18.625 60.09375 18.625 C 59.644531 18.625 59.25 18.53125 58.910156 18.351562 C 58.570312 18.171875 58.308594 17.925781 58.121094 17.617188 C 57.9375 17.304688 57.847656 16.96875 57.847656 16.609375 C 57.847656 16.117188 58 15.703125 58.300781 15.359375 C 58.605469 15.011719 59.023438 14.78125 59.554688 14.664062 C 59.667969 14.636719 59.945312 14.578125 60.386719 14.488281 C 60.824219 14.394531 61.203125 14.3125 61.519531 14.234375 C 61.832031 14.160156 62.175781 14.066406 62.542969 13.957031 C 62.523438 13.484375 62.429688 13.140625 62.265625 12.921875 C 62.097656 12.699219 61.757812 12.589844 61.238281 12.589844 C 60.792969 12.589844 60.457031 12.652344 60.234375 12.78125 C 60.007812 12.90625 59.816406 13.09375 59.65625 13.347656 C 59.496094 13.601562 59.382812 13.769531 59.316406 13.847656 C 59.25 13.929688 59.105469 13.96875 58.886719 13.96875 C 58.691406 13.96875 58.519531 13.90625 58.375 13.777344 C 58.234375 13.648438 58.160156 13.484375 58.160156 13.285156 C 58.160156 12.96875 58.269531 12.664062 58.488281 12.367188 C 58.707031 12.070312 59.046875 11.828125 59.511719 11.632812 C 59.972656 11.441406 60.550781 11.347656 61.238281 11.347656 C 62.011719 11.347656 62.617188 11.4375 63.058594 11.625 C 63.5 11.808594 63.8125 12.101562 63.992188 12.503906 C 64.175781 12.90625 64.265625 13.4375 64.265625 14.101562 C 64.265625 14.519531 64.265625 14.875 64.261719 15.167969 C 64.261719 15.460938 64.257812 15.785156 64.253906 16.144531 C 64.253906 16.480469 64.308594 16.828125 64.417969 17.195312 C 64.527344 17.558594 64.582031 17.792969 64.582031 17.898438 C 64.582031 18.082031 64.496094 18.246094 64.328125 18.398438 C 64.15625 18.546875 63.964844 18.625 63.75 18.625 C 63.570312 18.625 63.394531 18.539062 63.21875 18.363281 C 63.042969 18.191406 62.855469 17.941406 62.660156 17.617188 Z M 62.542969 15.03125 C 62.285156 15.125 61.914062 15.226562 61.421875 15.335938 C 60.933594 15.441406 60.59375 15.519531 60.402344 15.570312 C 60.214844 15.621094 60.035156 15.71875 59.863281 15.863281 C 59.691406 16.011719 59.605469 16.214844 59.605469 16.476562 C 59.605469 16.746094 59.707031 16.976562 59.910156 17.167969 C 60.109375 17.355469 60.375 17.453125 60.699219 17.453125 C 61.046875 17.453125 61.367188 17.375 61.660156 17.21875 C 61.953125 17.066406 62.167969 16.863281 62.304688 16.621094 C 62.464844 16.351562 62.542969 15.90625 62.542969 15.285156 Z M 62.542969 15.03125 " fill-opacity="1" fill-rule="evenodd"/><g clip-path="url(#2599d2906b)"><path fill="#000000" d="M 67.292969 9.722656 L 67.292969 12.453125 C 67.621094 12.101562 67.957031 11.835938 68.300781 11.652344 C 68.644531 11.464844 69.066406 11.371094 69.574219 11.371094 C 70.15625 11.371094 70.667969 11.511719 71.105469 11.792969 C 71.542969 12.074219 71.886719 12.484375 72.125 13.019531 C 72.367188 13.554688 72.488281 14.1875 72.488281 14.917969 C 72.488281 15.460938 72.421875 15.957031 72.289062 16.40625 C 72.152344 16.859375 71.957031 17.25 71.699219 17.582031 C 71.441406 17.914062 71.132812 18.171875 70.765625 18.351562 C 70.398438 18.53125 69.996094 18.625 69.554688 18.625 C 69.285156 18.625 69.03125 18.589844 68.792969 18.523438 C 68.554688 18.460938 68.351562 18.375 68.183594 18.265625 C 68.019531 18.160156 67.875 18.050781 67.757812 17.9375 C 67.640625 17.824219 67.484375 17.652344 67.292969 17.425781 L 67.292969 17.601562 C 67.292969 17.9375 67.210938 18.191406 67.054688 18.363281 C 66.894531 18.539062 66.695312 18.625 66.449219 18.625 C 66.199219 18.625 66.003906 18.539062 65.855469 18.363281 C 65.707031 18.191406 65.632812 17.9375 65.632812 17.601562 L 65.632812 9.800781 C 65.632812 9.441406 65.707031 9.164062 65.847656 8.980469 C 65.992188 8.796875 66.191406 8.703125 66.449219 8.703125 C 66.71875 8.703125 66.925781 8.789062 67.074219 8.96875 C 67.21875 9.144531 67.292969 9.394531 67.292969 9.722656 Z M 67.375 15.03125 C 67.375 15.742188 67.535156 16.289062 67.855469 16.667969 C 68.171875 17.050781 68.589844 17.242188 69.109375 17.242188 C 69.550781 17.242188 69.929688 17.046875 70.25 16.65625 C 70.570312 16.265625 70.730469 15.707031 70.730469 14.976562 C 70.730469 14.507812 70.664062 14.101562 70.53125 13.761719 C 70.398438 13.421875 70.207031 13.15625 69.964844 12.972656 C 69.71875 12.785156 69.433594 12.695312 69.109375 12.695312 C 68.777344 12.695312 68.476562 12.785156 68.21875 12.972656 C 67.957031 13.15625 67.75 13.425781 67.601562 13.777344 C 67.449219 14.128906 67.375 14.546875 67.375 15.03125 Z M 67.375 15.03125 " fill-opacity="1" fill-rule="evenodd"/></g><g clip-path="url(#8f4e9dc9fb)"><path fill="#0c5d35" d="M 14.640625 22.082031 C 14.359375 22.082031 14.082031 21.972656 13.867188 21.757812 L 10.246094 18.070312 C 9.96875 17.785156 9.59375 17.628906 9.191406 17.628906 C 8.789062 17.628906 8.417969 17.785156 8.136719 18.070312 L 4.515625 21.757812 C 4.089844 22.191406 3.394531 22.191406 2.96875 21.757812 C 2.539062 21.320312 2.539062 20.613281 2.96875 20.179688 L 6.585938 16.492188 C 7.28125 15.785156 8.207031 15.394531 9.191406 15.394531 C 10.175781 15.394531 11.101562 15.785156 11.796875 16.492188 L 15.414062 20.179688 C 15.84375 20.613281 15.84375 21.320312 15.414062 21.757812 C 15.203125 21.972656 14.921875 22.082031 14.640625 22.082031 Z M 14.640625 22.082031 " fill-opacity="1" fill-rule="evenodd"/></g><g clip-path="url(#2a408df8b0)"><path fill="#0a8b42" d="M 11.695312 16.394531 C 10.210938 15.894531 8.417969 17.785156 8.136719 18.070312 L 4.515625 21.757812 C 4.089844 22.191406 3.394531 22.191406 2.96875 21.757812 C 2.539062 21.320312 2.539062 20.613281 2.96875 20.179688 L 6.585938 16.492188 C 7.28125 15.785156 8.207031 15.394531 9.191406 15.394531 C 9.191406 15.394531 10.03125 15.398438 10.550781 15.65625 C 11.074219 15.917969 11.421875 16.117188 11.695312 16.394531 Z M 11.695312 16.394531 " fill-opacity="1" fill-rule="evenodd"/></g><g clip-path="url(#23af458632)"><path fill="#0c5d35" d="M 3.742188 7.894531 C 4.023438 7.894531 4.300781 8.003906 4.515625 8.21875 L 8.136719 11.90625 C 8.417969 12.191406 8.789062 12.347656 9.191406 12.347656 C 9.59375 12.347656 9.96875 12.191406 10.246094 11.90625 L 13.867188 8.21875 C 14.292969 7.785156 14.988281 7.785156 15.417969 8.21875 C 15.84375 8.65625 15.84375 9.363281 15.417969 9.796875 L 11.796875 13.484375 C 11.101562 14.191406 10.175781 14.582031 9.191406 14.582031 C 8.207031 14.582031 7.28125 14.191406 6.585938 13.484375 L 2.96875 9.796875 C 2.539062 9.363281 2.539062 8.65625 2.96875 8.21875 C 3.179688 8.003906 3.460938 7.894531 3.742188 7.894531 Z M 3.742188 7.894531 " fill-opacity="1" fill-rule="evenodd"/></g><g clip-path="url(#f808af5521)"><path fill="#0a8b42" d="M 6.6875 13.585938 C 8.171875 14.082031 9.96875 12.191406 10.246094 11.90625 L 13.867188 8.21875 C 14.292969 7.785156 14.988281 7.785156 15.417969 8.21875 C 15.84375 8.65625 15.84375 9.363281 15.417969 9.796875 L 11.796875 13.484375 C 11.101562 14.191406 10.175781 14.582031 9.191406 14.582031 C 9.191406 14.582031 8.351562 14.578125 7.832031 14.320312 C 7.3125 14.058594 6.964844 13.859375 6.6875 13.585938 Z M 6.6875 13.585938 " fill-opacity="1" fill-rule="evenodd"/></g><g clip-path="url(#75a98bc7e3)"><path fill="#0a8b42" d="M 10.8125 9.09375 C 10.8125 10.011719 10.082031 10.757812 9.179688 10.757812 C 8.277344 10.757812 7.542969 10.011719 7.542969 9.09375 C 7.542969 8.171875 8.277344 7.429688 9.179688 7.429688 C 10.082031 7.429688 10.8125 8.171875 10.8125 9.09375 Z M 10.8125 9.09375 " fill-opacity="1" fill-rule="evenodd"/></g><path fill="#000000" d="M 29.652344 17.332031 L 28.121094 15.789062 C 27.789062 15.453125 27.351562 15.265625 26.886719 15.253906 L 26.832031 15.253906 C 26.34375 15.253906 25.890625 15.449219 25.550781 15.800781 L 24.035156 17.359375 C 23.75 17.648438 23.753906 18.121094 24.039062 18.410156 C 24.171875 18.542969 24.347656 18.621094 24.535156 18.625 C 24.734375 18.628906 24.929688 18.546875 25.070312 18.402344 L 26.585938 16.84375 C 26.652344 16.777344 26.742188 16.738281 26.851562 16.738281 C 26.941406 16.738281 27.03125 16.777344 27.09375 16.84375 L 28.625 18.386719 C 28.757812 18.519531 28.933594 18.597656 29.121094 18.601562 L 29.140625 18.601562 C 29.335938 18.597656 29.519531 18.519531 29.65625 18.378906 C 29.9375 18.089844 29.9375 17.617188 29.652344 17.332031 Z M 29.652344 17.332031 " fill-opacity="1" fill-rule="evenodd"/><path fill="#000000" d="M 25.558594 14.160156 C 25.890625 14.492188 26.328125 14.683594 26.792969 14.695312 L 26.847656 14.695312 C 27.335938 14.691406 27.789062 14.5 28.128906 14.148438 L 29.644531 12.589844 C 29.929688 12.296875 29.925781 11.828125 29.640625 11.539062 C 29.507812 11.40625 29.332031 11.328125 29.144531 11.324219 C 28.945312 11.320312 28.75 11.398438 28.609375 11.542969 L 27.09375 13.105469 C 27.027344 13.171875 26.9375 13.210938 26.828125 13.210938 C 26.738281 13.207031 26.648438 13.171875 26.585938 13.105469 L 25.054688 11.5625 C 24.921875 11.429688 24.746094 11.351562 24.558594 11.347656 L 24.539062 11.347656 C 24.34375 11.347656 24.160156 11.425781 24.023438 11.566406 C 23.886719 11.707031 23.8125 11.894531 23.8125 12.09375 C 23.8125 12.292969 23.890625 12.476562 24.027344 12.617188 Z M 25.558594 14.160156 " fill-opacity="1" fill-rule="evenodd"/></svg>