<svg xmlns="http://www.w3.org/2000/svg" xmlns:xlink="http://www.w3.org/1999/xlink" width="100" zoomAndPan="magnify" viewBox="0 0 75 30.000001" height="40" preserveAspectRatio="xMidYMid meet" version="1.0"><defs><clipPath id="ef68927b31"><path d="M 21.59375 6.816406 L 25.257812 6.816406 L 25.257812 10.269531 L 21.59375 10.269531 Z M 21.59375 6.816406 " clip-rule="nonzero"/></clipPath><clipPath id="5a1a92b529"><path d="M 23.425781 6.816406 C 22.414062 6.816406 21.59375 7.589844 21.59375 8.542969 C 21.59375 9.496094 22.414062 10.269531 23.425781 10.269531 C 24.4375 10.269531 25.257812 9.496094 25.257812 8.542969 C 25.257812 7.589844 24.4375 6.816406 23.425781 6.816406 Z M 23.425781 6.816406 " clip-rule="nonzero"/></clipPath></defs><path fill="#ffffff" d="M 10.46875 19.238281 C 8.621094 19.238281 7.195312 18.859375 6.191406 18.089844 C 5.195312 17.324219 4.695312 16.242188 4.695312 14.832031 C 4.695312 13.910156 4.722656 13.015625 4.777344 12.148438 C 4.835938 11.285156 4.898438 10.539062 4.957031 9.910156 C 4.984375 9.679688 5.121094 9.542969 5.367188 9.5 C 5.460938 9.476562 5.578125 9.464844 5.726562 9.457031 C 5.875 9.445312 6.015625 9.4375 6.152344 9.433594 C 6.292969 9.429688 6.398438 9.425781 6.460938 9.425781 C 6.527344 9.425781 6.628906 9.429688 6.773438 9.433594 C 6.921875 9.4375 7.070312 9.445312 7.222656 9.457031 C 7.378906 9.464844 7.5 9.476562 7.582031 9.5 C 7.691406 9.515625 7.789062 9.566406 7.882812 9.652344 C 7.984375 9.742188 8.015625 9.867188 7.984375 10.03125 C 7.84375 10.699219 7.730469 11.449219 7.640625 12.273438 C 7.546875 13.09375 7.519531 13.914062 7.558594 14.734375 C 7.574219 15.210938 7.695312 15.644531 7.925781 16.039062 C 8.152344 16.433594 8.480469 16.75 8.90625 16.984375 C 9.335938 17.210938 9.855469 17.328125 10.46875 17.328125 C 11.089844 17.328125 11.613281 17.207031 12.035156 16.964844 C 12.464844 16.726562 12.796875 16.40625 13.027344 16.007812 C 13.253906 15.609375 13.378906 15.183594 13.394531 14.734375 C 13.429688 13.914062 13.402344 13.097656 13.304688 12.289062 C 13.207031 11.480469 13.085938 10.726562 12.953125 10.03125 C 12.917969 9.867188 12.949219 9.742188 13.042969 9.652344 C 13.140625 9.566406 13.238281 9.515625 13.335938 9.5 C 13.429688 9.476562 13.550781 9.464844 13.703125 9.457031 C 13.863281 9.445312 14.011719 9.4375 14.152344 9.433594 C 14.300781 9.429688 14.40625 9.425781 14.472656 9.425781 C 14.542969 9.425781 14.644531 9.429688 14.78125 9.433594 C 14.917969 9.4375 15.0625 9.445312 15.214844 9.457031 C 15.367188 9.464844 15.488281 9.476562 15.574219 9.5 C 15.816406 9.542969 15.949219 9.679688 15.976562 9.910156 C 16.066406 10.539062 16.132812 11.285156 16.171875 12.148438 C 16.214844 13.015625 16.238281 13.910156 16.238281 14.832031 C 16.238281 16.242188 15.734375 17.324219 14.734375 18.089844 C 13.738281 18.859375 12.316406 19.238281 10.46875 19.238281 Z M 10.46875 19.238281 " fill-opacity="1" fill-rule="nonzero"/><path fill="#c49cff" d="M 18.984375 19.167969 C 18.847656 19.167969 18.691406 19.160156 18.519531 19.148438 C 18.34375 19.144531 18.152344 19.128906 17.945312 19.101562 C 17.816406 19.085938 17.710938 19.039062 17.636719 18.960938 C 17.558594 18.878906 17.523438 18.777344 17.523438 18.65625 C 17.523438 18.21875 17.625 17.765625 17.832031 17.292969 C 18.042969 16.824219 18.332031 16.375 18.691406 15.949219 C 19.050781 15.519531 19.457031 15.140625 19.917969 14.816406 C 20.378906 14.488281 20.855469 14.257812 21.347656 14.117188 C 21.464844 14.082031 21.527344 14.015625 21.527344 13.921875 C 21.53125 13.824219 21.476562 13.757812 21.363281 13.726562 C 20.894531 13.578125 20.457031 13.363281 20.054688 13.085938 C 19.652344 12.804688 19.296875 12.488281 18.984375 12.132812 C 18.679688 11.773438 18.4375 11.398438 18.257812 11.015625 C 18.082031 10.636719 17.996094 10.273438 17.996094 9.933594 C 17.996094 9.6875 18.128906 9.542969 18.40625 9.5 C 18.617188 9.460938 18.808594 9.4375 18.984375 9.433594 C 19.164062 9.429688 19.320312 9.425781 19.457031 9.425781 C 19.59375 9.425781 19.761719 9.429688 19.964844 9.441406 C 20.171875 9.453125 20.375 9.472656 20.570312 9.5 C 20.765625 9.527344 20.890625 9.628906 20.9375 9.808594 C 21.089844 10.382812 21.296875 10.914062 21.558594 11.394531 C 21.824219 11.875 22.125 12.261719 22.457031 12.550781 C 22.789062 12.835938 23.121094 12.976562 23.449219 12.976562 C 23.785156 12.976562 24.125 12.828125 24.46875 12.527344 C 24.8125 12.226562 25.117188 11.835938 25.382812 11.351562 C 25.648438 10.871094 25.84375 10.359375 25.964844 9.808594 C 25.992188 9.628906 26.113281 9.527344 26.324219 9.5 C 26.519531 9.460938 26.722656 9.4375 26.929688 9.433594 C 27.140625 9.429688 27.3125 9.425781 27.445312 9.425781 C 27.578125 9.425781 27.742188 9.429688 27.925781 9.441406 C 28.109375 9.453125 28.304688 9.472656 28.507812 9.5 C 28.625 9.503906 28.722656 9.546875 28.800781 9.628906 C 28.875 9.710938 28.914062 9.8125 28.914062 9.933594 C 28.910156 10.285156 28.8125 10.652344 28.628906 11.03125 C 28.449219 11.417969 28.199219 11.789062 27.886719 12.148438 C 27.570312 12.507812 27.210938 12.828125 26.808594 13.117188 C 26.410156 13.402344 25.992188 13.621094 25.554688 13.773438 C 25.445312 13.8125 25.394531 13.875 25.394531 13.964844 C 25.394531 14.050781 25.445312 14.117188 25.554688 14.160156 C 26.058594 14.351562 26.53125 14.617188 26.988281 14.949219 C 27.445312 15.277344 27.851562 15.644531 28.210938 16.054688 C 28.574219 16.464844 28.859375 16.898438 29.070312 17.34375 C 29.289062 17.792969 29.398438 18.230469 29.398438 18.65625 C 29.398438 18.777344 29.355469 18.878906 29.273438 18.960938 C 29.195312 19.039062 29.089844 19.085938 28.972656 19.101562 C 28.769531 19.128906 28.578125 19.144531 28.390625 19.148438 C 28.210938 19.160156 28.058594 19.167969 27.933594 19.167969 C 27.742188 19.167969 27.550781 19.160156 27.355469 19.15625 C 27.160156 19.15625 26.957031 19.136719 26.757812 19.101562 C 26.550781 19.074219 26.417969 18.96875 26.367188 18.789062 C 26.21875 18.320312 26.03125 17.859375 25.800781 17.410156 C 25.574219 16.957031 25.324219 16.542969 25.058594 16.171875 C 24.789062 15.800781 24.519531 15.5 24.242188 15.277344 C 23.960938 15.050781 23.695312 14.941406 23.449219 14.941406 C 23.195312 14.941406 22.925781 15.054688 22.628906 15.285156 C 22.339844 15.515625 22.058594 15.816406 21.78125 16.195312 C 21.503906 16.570312 21.25 16.980469 21.027344 17.425781 C 20.808594 17.875 20.644531 18.324219 20.539062 18.773438 C 20.503906 18.964844 20.375 19.074219 20.152344 19.101562 C 19.957031 19.136719 19.761719 19.15625 19.566406 19.15625 C 19.367188 19.160156 19.175781 19.167969 18.984375 19.167969 Z M 18.984375 19.167969 " fill-opacity="1" fill-rule="nonzero"/><path fill="#ffffff" d="M 36.664062 19.167969 C 36.402344 19.167969 36.074219 19.160156 35.691406 19.15625 C 35.308594 19.15625 34.90625 19.152344 34.488281 19.148438 C 34.074219 19.144531 33.671875 19.136719 33.277344 19.132812 C 32.886719 19.128906 32.539062 19.121094 32.242188 19.117188 C 31.945312 19.117188 31.734375 19.109375 31.609375 19.101562 C 31.472656 19.089844 31.359375 19.050781 31.269531 18.984375 C 31.171875 18.914062 31.128906 18.8125 31.128906 18.671875 C 31.140625 18.078125 31.152344 17.414062 31.167969 16.679688 C 31.191406 15.941406 31.214844 15.175781 31.242188 14.382812 C 31.269531 13.582031 31.304688 12.796875 31.347656 12.027344 C 31.390625 11.253906 31.441406 10.539062 31.496094 9.875 C 31.515625 9.75 31.570312 9.660156 31.652344 9.597656 C 31.738281 9.539062 31.847656 9.503906 31.980469 9.5 C 32.085938 9.488281 32.273438 9.480469 32.542969 9.472656 C 32.816406 9.46875 33.132812 9.464844 33.492188 9.464844 C 33.855469 9.460938 34.234375 9.457031 34.628906 9.449219 C 35.019531 9.445312 35.394531 9.441406 35.753906 9.441406 C 36.113281 9.441406 36.425781 9.441406 36.695312 9.441406 C 37.183594 9.441406 37.714844 9.441406 38.289062 9.441406 C 38.863281 9.441406 39.425781 9.445312 39.964844 9.457031 C 40.507812 9.464844 40.972656 9.476562 41.355469 9.5 C 41.617188 9.503906 41.757812 9.640625 41.785156 9.910156 C 41.8125 10.117188 41.835938 10.390625 41.851562 10.722656 C 41.871094 11.050781 41.894531 11.375 41.910156 11.699219 C 41.929688 12.023438 41.941406 12.285156 41.941406 12.484375 C 41.945312 12.699219 41.867188 12.828125 41.707031 12.863281 C 41.542969 12.894531 41.390625 12.820312 41.253906 12.632812 C 40.914062 12.152344 40.378906 11.804688 39.652344 11.589844 C 38.933594 11.375 37.972656 11.261719 36.777344 11.261719 C 36.222656 11.261719 35.710938 11.300781 35.25 11.371094 C 34.789062 11.433594 34.425781 11.554688 34.152344 11.722656 C 33.886719 11.886719 33.753906 12.113281 33.753906 12.402344 L 33.753906 12.484375 C 33.753906 13.058594 34.496094 13.347656 35.984375 13.347656 C 36.328125 13.347656 36.710938 13.34375 37.136719 13.332031 C 37.566406 13.316406 37.992188 13.296875 38.410156 13.273438 C 38.832031 13.253906 39.195312 13.226562 39.507812 13.199219 C 39.636719 13.183594 39.746094 13.21875 39.839844 13.304688 C 39.941406 13.386719 39.988281 13.496094 39.988281 13.625 L 39.988281 14.929688 C 39.988281 15.074219 39.929688 15.167969 39.816406 15.21875 C 39.703125 15.265625 39.566406 15.238281 39.410156 15.144531 C 39.164062 15.03125 38.859375 14.941406 38.5 14.875 C 38.140625 14.808594 37.761719 14.761719 37.363281 14.734375 C 36.972656 14.707031 36.597656 14.691406 36.246094 14.691406 C 35.8125 14.691406 35.40625 14.722656 35.019531 14.773438 C 34.632812 14.832031 34.320312 14.933594 34.078125 15.085938 C 33.84375 15.242188 33.726562 15.457031 33.726562 15.734375 L 33.726562 15.917969 C 33.726562 16.257812 33.894531 16.527344 34.234375 16.730469 C 34.578125 16.933594 35.027344 17.074219 35.582031 17.15625 C 36.140625 17.238281 36.726562 17.277344 37.347656 17.277344 C 38.050781 17.277344 38.644531 17.242188 39.128906 17.164062 C 39.621094 17.082031 40.03125 16.960938 40.363281 16.800781 C 40.703125 16.644531 40.996094 16.4375 41.238281 16.1875 C 41.488281 15.9375 41.722656 15.636719 41.941406 15.285156 C 42.039062 15.109375 42.175781 15.035156 42.351562 15.054688 C 42.53125 15.070312 42.632812 15.1875 42.660156 15.398438 C 42.6875 15.578125 42.710938 15.820312 42.734375 16.121094 C 42.761719 16.421875 42.789062 16.742188 42.816406 17.082031 C 42.84375 17.421875 42.867188 17.742188 42.882812 18.042969 C 42.898438 18.34375 42.910156 18.585938 42.921875 18.773438 C 42.941406 18.980469 42.824219 19.089844 42.578125 19.101562 C 42.261719 19.117188 41.847656 19.128906 41.335938 19.140625 C 40.832031 19.152344 40.285156 19.15625 39.703125 19.15625 C 39.125 19.160156 38.566406 19.167969 38.027344 19.167969 C 37.492188 19.167969 37.039062 19.167969 36.664062 19.167969 Z M 36.664062 19.167969 " fill-opacity="1" fill-rule="nonzero"/><path fill="#ffffff" d="M 50.925781 19.222656 C 50.503906 19.222656 50.039062 19.199219 49.519531 19.148438 C 49 19.105469 48.46875 19.042969 47.925781 18.960938 C 47.386719 18.878906 46.867188 18.792969 46.367188 18.699219 C 45.863281 18.601562 45.410156 18.496094 45.007812 18.386719 C 44.921875 18.359375 44.847656 18.300781 44.789062 18.214844 C 44.734375 18.128906 44.707031 18.03125 44.707031 17.917969 C 44.707031 17.554688 44.707031 17.1875 44.714844 16.828125 C 44.71875 16.464844 44.726562 16.101562 44.738281 15.734375 C 44.742188 15.542969 44.824219 15.414062 44.976562 15.339844 C 45.132812 15.265625 45.273438 15.292969 45.394531 15.421875 C 46.066406 16.054688 46.878906 16.511719 47.828125 16.800781 C 48.78125 17.09375 49.796875 17.238281 50.878906 17.238281 C 51.722656 17.238281 52.394531 17.152344 52.898438 16.984375 C 53.398438 16.816406 53.648438 16.554688 53.648438 16.203125 C 53.648438 15.972656 53.527344 15.789062 53.28125 15.652344 C 53.039062 15.511719 52.714844 15.398438 52.308594 15.308594 C 51.898438 15.222656 51.441406 15.144531 50.933594 15.078125 C 50.429688 15.007812 49.902344 14.929688 49.355469 14.847656 C 48.8125 14.765625 48.285156 14.664062 47.78125 14.539062 C 47.273438 14.40625 46.816406 14.238281 46.40625 14.035156 C 46 13.828125 45.671875 13.566406 45.425781 13.25 C 45.183594 12.925781 45.066406 12.527344 45.066406 12.050781 C 45.066406 11.5625 45.207031 11.152344 45.492188 10.8125 C 45.773438 10.472656 46.164062 10.195312 46.667969 9.984375 C 47.175781 9.769531 47.765625 9.617188 48.441406 9.523438 C 49.117188 9.425781 49.839844 9.375 50.617188 9.375 C 51.105469 9.375 51.621094 9.402344 52.160156 9.457031 C 52.703125 9.511719 53.238281 9.59375 53.761719 9.703125 C 54.285156 9.8125 54.761719 9.945312 55.191406 10.097656 C 55.394531 10.175781 55.496094 10.316406 55.496094 10.523438 L 55.496094 12.320312 C 55.496094 12.503906 55.421875 12.640625 55.273438 12.730469 C 55.128906 12.828125 54.992188 12.816406 54.867188 12.707031 C 54.3125 12.277344 53.667969 11.941406 52.9375 11.707031 C 52.207031 11.464844 51.472656 11.34375 50.738281 11.34375 C 50.265625 11.34375 49.808594 11.378906 49.375 11.445312 C 48.941406 11.507812 48.589844 11.613281 48.320312 11.746094 C 48.046875 11.882812 47.910156 12.066406 47.910156 12.296875 C 47.910156 12.523438 48.035156 12.707031 48.277344 12.847656 C 48.523438 12.984375 48.851562 13.09375 49.257812 13.175781 C 49.667969 13.257812 50.128906 13.332031 50.640625 13.398438 C 51.15625 13.457031 51.691406 13.527344 52.242188 13.609375 C 52.796875 13.6875 53.332031 13.789062 53.84375 13.914062 C 54.363281 14.035156 54.824219 14.195312 55.234375 14.398438 C 55.644531 14.59375 55.96875 14.851562 56.214844 15.167969 C 56.460938 15.488281 56.582031 15.878906 56.582031 16.34375 C 56.582031 17.257812 56.085938 17.964844 55.09375 18.46875 C 54.101562 18.972656 52.710938 19.222656 50.925781 19.222656 Z M 50.925781 19.222656 " fill-opacity="1" fill-rule="nonzero"/><path fill="#ffffff" d="M 64.535156 19.222656 C 64.113281 19.222656 63.644531 19.199219 63.128906 19.148438 C 62.609375 19.105469 62.078125 19.042969 61.535156 18.960938 C 60.996094 18.878906 60.472656 18.792969 59.972656 18.699219 C 59.472656 18.601562 59.019531 18.496094 58.617188 18.386719 C 58.527344 18.359375 58.457031 18.300781 58.394531 18.214844 C 58.339844 18.128906 58.3125 18.03125 58.3125 17.917969 C 58.3125 17.554688 58.316406 17.1875 58.324219 16.828125 C 58.328125 16.464844 58.335938 16.101562 58.347656 15.734375 C 58.351562 15.542969 58.429688 15.414062 58.585938 15.339844 C 58.742188 15.265625 58.878906 15.292969 59 15.421875 C 59.675781 16.054688 60.488281 16.511719 61.4375 16.800781 C 62.390625 17.09375 63.40625 17.238281 64.484375 17.238281 C 65.328125 17.238281 66 17.152344 66.503906 16.984375 C 67.003906 16.816406 67.257812 16.554688 67.257812 16.203125 C 67.257812 15.972656 67.132812 15.789062 66.886719 15.652344 C 66.648438 15.511719 66.324219 15.398438 65.914062 15.308594 C 65.507812 15.222656 65.050781 15.144531 64.542969 15.078125 C 64.035156 15.007812 63.507812 14.929688 62.964844 14.847656 C 62.417969 14.765625 61.894531 14.664062 61.386719 14.539062 C 60.882812 14.40625 60.421875 14.238281 60.015625 14.035156 C 59.605469 13.828125 59.277344 13.566406 59.035156 13.25 C 58.792969 12.925781 58.675781 12.527344 58.675781 12.050781 C 58.675781 11.5625 58.816406 11.152344 59.097656 10.8125 C 59.382812 10.472656 59.773438 10.195312 60.277344 9.984375 C 60.78125 9.769531 61.375 9.617188 62.050781 9.523438 C 62.722656 9.425781 63.449219 9.375 64.222656 9.375 C 64.714844 9.375 65.230469 9.402344 65.769531 9.457031 C 66.3125 9.511719 66.847656 9.59375 67.371094 9.703125 C 67.894531 9.8125 68.371094 9.945312 68.800781 10.097656 C 69 10.175781 69.101562 10.316406 69.101562 10.523438 L 69.101562 12.320312 C 69.101562 12.503906 69.03125 12.640625 68.882812 12.730469 C 68.734375 12.828125 68.597656 12.816406 68.472656 12.707031 C 67.917969 12.277344 67.273438 11.941406 66.546875 11.707031 C 65.8125 11.464844 65.082031 11.34375 64.347656 11.34375 C 63.871094 11.34375 63.417969 11.378906 62.980469 11.445312 C 62.550781 11.507812 62.199219 11.613281 61.925781 11.746094 C 61.652344 11.882812 61.519531 12.066406 61.519531 12.296875 C 61.519531 12.523438 61.640625 12.707031 61.886719 12.847656 C 62.132812 12.984375 62.457031 13.09375 62.867188 13.175781 C 63.277344 13.257812 63.734375 13.332031 64.25 13.398438 C 64.765625 13.457031 65.296875 13.527344 65.851562 13.609375 C 66.40625 13.6875 66.941406 13.789062 67.453125 13.914062 C 67.96875 14.035156 68.433594 14.195312 68.84375 14.398438 C 69.25 14.59375 69.578125 14.851562 69.824219 15.167969 C 70.066406 15.488281 70.191406 15.878906 70.191406 16.34375 C 70.191406 17.257812 69.695312 17.964844 68.703125 18.46875 C 67.710938 18.972656 66.320312 19.222656 64.535156 19.222656 Z M 64.535156 19.222656 " fill-opacity="1" fill-rule="nonzero"/><path fill="#ffffff" d="M 19.570312 18.355469 C 19.449219 18.355469 19.316406 18.347656 19.167969 18.339844 C 19.019531 18.332031 18.859375 18.316406 18.679688 18.296875 C 18.5625 18.28125 18.472656 18.238281 18.40625 18.175781 C 18.34375 18.109375 18.308594 18.023438 18.308594 17.921875 C 18.308594 17.542969 18.398438 17.152344 18.578125 16.746094 C 18.757812 16.34375 19.003906 15.953125 19.316406 15.582031 C 19.625 15.210938 19.976562 14.882812 20.371094 14.605469 C 20.765625 14.324219 21.179688 14.128906 21.605469 14.011719 C 21.707031 13.980469 21.757812 13.921875 21.757812 13.839844 C 21.761719 13.757812 21.714844 13.703125 21.613281 13.667969 C 21.214844 13.542969 20.839844 13.359375 20.492188 13.117188 C 20.144531 12.878906 19.839844 12.605469 19.578125 12.296875 C 19.316406 11.992188 19.105469 11.675781 18.949219 11.347656 C 18.792969 11.015625 18.71875 10.703125 18.71875 10.410156 C 18.71875 10.199219 18.835938 10.070312 19.078125 10.035156 C 19.257812 10 19.421875 9.984375 19.578125 9.984375 C 19.726562 9.980469 19.863281 9.976562 19.976562 9.976562 C 20.097656 9.976562 20.242188 9.980469 20.417969 9.984375 C 20.597656 9.988281 20.769531 10.007812 20.933594 10.035156 C 21.109375 10.054688 21.214844 10.144531 21.253906 10.304688 C 21.382812 10.796875 21.5625 11.253906 21.792969 11.667969 C 22.019531 12.082031 22.277344 12.414062 22.558594 12.660156 C 22.847656 12.90625 23.132812 13.027344 23.417969 13.027344 C 23.707031 13.027344 24 12.902344 24.292969 12.644531 C 24.585938 12.378906 24.847656 12.042969 25.078125 11.632812 C 25.3125 11.21875 25.476562 10.777344 25.578125 10.304688 C 25.601562 10.144531 25.707031 10.054688 25.886719 10.035156 C 26.054688 10 26.230469 9.984375 26.410156 9.984375 C 26.59375 9.980469 26.742188 9.976562 26.851562 9.976562 C 26.964844 9.976562 27.101562 9.980469 27.261719 9.984375 C 27.421875 9.988281 27.589844 10.007812 27.765625 10.035156 C 27.867188 10.039062 27.953125 10.078125 28.019531 10.148438 C 28.085938 10.21875 28.117188 10.308594 28.117188 10.410156 C 28.113281 10.707031 28.03125 11.023438 27.875 11.355469 C 27.714844 11.683594 27.5 12.003906 27.226562 12.316406 C 26.960938 12.621094 26.652344 12.898438 26.304688 13.144531 C 25.960938 13.390625 25.601562 13.582031 25.226562 13.71875 C 25.132812 13.746094 25.085938 13.796875 25.085938 13.875 C 25.085938 13.953125 25.132812 14.007812 25.226562 14.046875 C 25.652344 14.210938 26.066406 14.4375 26.460938 14.71875 C 26.851562 15.003906 27.203125 15.324219 27.511719 15.679688 C 27.824219 16.03125 28.070312 16.398438 28.257812 16.789062 C 28.441406 17.171875 28.535156 17.546875 28.535156 17.921875 C 28.535156 18.023438 28.5 18.109375 28.429688 18.175781 C 28.355469 18.238281 28.269531 18.28125 28.167969 18.296875 C 27.992188 18.316406 27.824219 18.332031 27.667969 18.339844 C 27.515625 18.347656 27.382812 18.355469 27.277344 18.355469 C 27.105469 18.355469 26.9375 18.351562 26.769531 18.347656 C 26.601562 18.347656 26.429688 18.332031 26.261719 18.296875 C 26.082031 18.277344 25.96875 18.1875 25.917969 18.027344 C 25.792969 17.628906 25.632812 17.234375 25.4375 16.84375 C 25.242188 16.449219 25.023438 16.097656 24.792969 15.777344 C 24.5625 15.457031 24.328125 15.199219 24.089844 15.007812 C 23.847656 14.816406 23.625 14.71875 23.417969 14.71875 C 23.195312 14.71875 22.957031 14.816406 22.707031 15.015625 C 22.457031 15.210938 22.210938 15.472656 21.972656 15.792969 C 21.730469 16.117188 21.515625 16.472656 21.324219 16.863281 C 21.140625 17.246094 21 17.628906 20.910156 18.011719 C 20.875 18.179688 20.765625 18.277344 20.582031 18.296875 C 20.40625 18.332031 20.234375 18.347656 20.066406 18.347656 C 19.898438 18.351562 19.730469 18.355469 19.570312 18.355469 Z M 19.570312 18.355469 " fill-opacity="1" fill-rule="nonzero"/><g clip-path="url(#ef68927b31)"><g clip-path="url(#5a1a92b529)"><path fill="#c49cff" d="M 21.59375 6.816406 L 25.257812 6.816406 L 25.257812 10.269531 L 21.59375 10.269531 Z M 21.59375 6.816406 " fill-opacity="1" fill-rule="nonzero"/></g></g></svg>