<svg width="204" height="57" viewBox="0 0 204 57" fill="none" xmlns="http://www.w3.org/2000/svg">
<rect x="1" y="0.5" width="202" height="56" rx="4.5" stroke="#9747FF" stroke-dasharray="10 5"/>
<path fill-rule="evenodd" clip-rule="evenodd" d="M27.9703 19.9158C26.8588 19.9158 26.1898 20.6315 25.7435 21.5603L17.5204 40.5879C17.2986 40.8218 17.3178 41.0615 17.3178 41.5241C17.3178 42.4452 18.2034 43.3711 19.089 43.3711C19.9786 43.3711 20.6385 42.9116 20.8603 41.9793L22.6314 37.577H28.1725C29.0583 37.577 29.9688 36.8858 29.9688 35.9573C29.9688 35.0285 29.0583 34.0851 28.1725 34.0851H24.2003L27.9703 24.7991L31.9426 34.0851L33.2836 37.577L35.0547 41.9793C35.4971 42.679 36.1683 43.3711 37.0536 43.3711C37.9432 43.3711 38.8247 42.4499 38.8247 41.2962C38.8247 41.0667 38.8187 40.8218 38.5973 40.5879L30.3993 21.5603C29.9569 20.6315 29.2789 19.9158 28.1725 19.9158H27.9703ZM72.3266 19.9158C65.6706 19.9158 61.0156 25.2615 61.0156 31.7571C61.0156 38.2527 65.6706 43.5988 72.3266 43.5988C78.9783 43.5988 83.8636 38.2527 83.8636 31.7571C83.8636 25.2615 79.1959 19.9158 72.3266 19.9158ZM126.906 20.1688C125.788 20.1688 124.905 21.094 124.905 22.2438V41.2962C124.905 42.4499 125.788 43.3711 126.906 43.3711C127.785 43.3711 128.676 42.4499 128.676 41.2962V36.6409L132.218 32.9212L139.326 42.435C139.77 42.9013 140.205 43.3711 140.871 43.3711C141.976 43.3711 142.872 42.4499 142.872 41.2962C142.872 40.8337 142.641 40.346 142.415 39.8793L134.876 30.3659L141.758 23.6352C142.193 23.1689 142.415 22.7029 142.415 22.016C142.415 21.0867 141.758 20.1688 140.644 20.1688C139.979 20.1688 139.548 20.3853 139.1 20.8521L128.676 31.7572V22.2438C128.676 21.094 127.785 20.1688 126.906 20.1688ZM43.4839 20.3964C42.5981 20.3964 41.7128 21.3167 41.7128 22.4713V41.2962C41.7128 42.4499 42.5981 43.3711 43.4839 43.3711C44.5941 43.3711 45.4828 42.4499 45.4828 41.2962V35.7043H49.936C54.8145 35.7043 58.564 33.1712 58.564 28.0631C58.564 23.4176 55.466 20.3964 50.366 20.3964H43.4839ZM85.636 20.3964C84.7485 20.3964 83.8653 21.3227 83.8653 22.2438C83.8653 23.177 84.7485 24.1161 85.636 24.1161H90.9523V41.2962C90.9523 42.4499 91.8653 43.3711 92.9747 43.3711C94.0755 43.3711 94.9501 42.4499 94.9501 41.2962V24.1161H100.288C101.179 24.1161 102.058 23.177 102.058 22.2438C102.058 21.3227 101.179 20.3964 100.288 20.3964H85.636ZM106.487 20.3964C105.374 20.3964 104.486 21.3167 104.486 22.4713V41.0688C104.486 42.2195 105.374 43.1433 106.487 43.1433H119.364C120.256 43.1433 121.139 42.4499 121.139 41.2962C121.139 40.3674 120.256 39.6518 119.364 39.6518H108.484V33.402H117.798C118.686 33.402 119.569 32.6865 119.569 31.7572C119.569 30.5946 118.686 29.9102 117.798 29.9102H108.484V23.863H119.138C120.251 23.863 120.909 23.177 120.909 22.2438C120.909 21.094 120.251 20.3964 119.138 20.3964H106.487ZM72.3283 23.6352C76.7613 23.6352 79.8675 27.3446 79.8675 31.7572C79.8675 36.169 76.7613 39.8793 72.3283 39.8793C68.1128 39.8793 65.0152 36.169 65.0152 31.7572C65.0152 27.3446 68.1128 23.6352 72.3283 23.6352ZM45.4828 24.1161H49.936C52.8185 24.1161 54.794 25.5125 54.794 28.0631C54.794 30.6125 52.8185 32.2381 49.936 32.2381H45.4828V24.1161Z" fill="#00CD4F"/>
<path fill-rule="evenodd" clip-rule="evenodd" d="M186.348 25.5044C186.348 23.1757 185.46 20.8589 183.69 18.9965C181.919 17.1424 179.692 16.2133 177.477 16.2133H177.251C175.259 16.2133 172.822 17.1424 171.265 18.9966L165.94 24.3385C165.275 25.2716 165.275 26.4215 165.94 27.1216C166.61 28.0552 167.933 28.0552 168.603 27.1216L173.923 21.7883C175.037 20.626 176.15 20.1596 177.477 20.1596C178.587 20.1596 179.692 20.626 181.027 21.7883C182.132 22.9428 182.576 24.3385 182.576 25.5046C182.576 26.8882 182.132 28.0552 181.027 29.217L167.498 43.3742L153.738 29.217C152.632 28.0552 152.189 26.6553 152.189 25.5046C152.189 24.1047 152.632 22.9428 153.738 21.7883C154.847 20.626 155.965 20.1596 157.287 20.1596C158.401 20.1596 159.728 20.626 160.842 21.7883L161.063 22.2427C161.951 22.9428 163.056 22.9428 163.943 22.2427C164.613 21.3215 164.613 20.1596 163.943 19.4592L163.504 18.9967C161.729 17.1426 159.506 16.2135 157.287 16.2135C155.073 16.2135 152.854 17.1426 151.075 18.9967C149.304 20.859 148.417 23.1758 148.417 25.5047C148.417 27.8215 149.304 30.1379 151.075 32.0003L165.492 46.8538C165.94 47.5531 166.61 47.7869 167.276 47.7869H167.498C168.155 47.7869 168.824 47.5531 169.268 46.8538L183.69 32.0003C185.46 30.1379 186.348 27.8212 186.348 25.5044Z" fill="#00CD4F"/>
</svg>
