<svg width="16" height="17" viewBox="0 0 16 17" fill="none" xmlns="http://www.w3.org/2000/svg">
<path fill-rule="evenodd" clip-rule="evenodd" d="M9.83401 4.73447C9.98403 4.5845 10.1875 4.50024 10.3996 4.50024C10.6117 4.50024 10.8152 4.5845 10.9652 4.73447L14.1652 7.93447C14.3152 8.0845 14.3994 8.28794 14.3994 8.50007C14.3994 8.7122 14.3152 8.91565 14.1652 9.06567L10.9652 12.2657C10.8143 12.4114 10.6122 12.492 10.4025 12.4902C10.1927 12.4884 9.99208 12.4043 9.84375 12.2559C9.69543 12.1076 9.61129 11.907 9.60947 11.6972C9.60765 11.4874 9.68828 11.2854 9.83401 11.1345L11.6684 9.30007H2.39961C2.18744 9.30007 1.98395 9.21579 1.83392 9.06576C1.68389 8.91573 1.59961 8.71225 1.59961 8.50007C1.59961 8.2879 1.68389 8.08442 1.83392 7.93439C1.98395 7.78436 2.18744 7.70007 2.39961 7.70007H11.6684L9.83401 5.86567C9.68403 5.71565 9.59978 5.5122 9.59978 5.30007C9.59978 5.08794 9.68403 4.8845 9.83401 4.73447V4.73447Z" fill="#5A3F2F"/>
</svg>
