<svg width="28" height="28" viewBox="0 0 28 28" fill="none" xmlns="http://www.w3.org/2000/svg">
<path d="M0 14C0 6.26801 6.26801 0 14 0V0C21.732 0 28 6.26801 28 14V14C28 21.732 21.732 28 14 28V28C6.26801 28 0 21.732 0 14V14Z" fill="url(#paint0_linear_15102_1285)"/>
<path d="M11.6002 8H10.8002C9.91654 8 9.2002 8.67157 9.2002 9.5V18.5C9.2002 19.3284 9.91654 20 10.8002 20H11.6002C12.4839 20 13.2002 19.3284 13.2002 18.5V9.5C13.2002 8.67157 12.4839 8 11.6002 8Z" fill="#FCFCFC"/>
<path d="M17.2002 8H16.4002C15.5165 8 14.8002 8.67157 14.8002 9.5V18.5C14.8002 19.3284 15.5165 20 16.4002 20H17.2002C18.0839 20 18.8002 19.3284 18.8002 18.5V9.5C18.8002 8.67157 18.0839 8 17.2002 8Z" fill="#FCFCFC"/>
<defs>
<linearGradient id="paint0_linear_15102_1285" x1="14" y1="0" x2="14" y2="28" gradientUnits="userSpaceOnUse">
<stop stop-color="#608060"/>
<stop offset="1" stop-color="#344835"/>
</linearGradient>
</defs>
</svg>
