<svg width="28" height="28" viewBox="0 0 28 28" fill="none" xmlns="http://www.w3.org/2000/svg">
<path d="M0 14C0 6.26801 6.26801 0 14 0V0C21.732 0 28 6.26801 28 14V14C28 21.732 21.732 28 14 28V28C6.26801 28 0 21.732 0 14V14Z" fill="url(#paint0_linear_15102_1307)"/>
<path fill-rule="evenodd" clip-rule="evenodd" d="M13.9996 20.4001C15.697 20.4001 17.3249 19.7258 18.5251 18.5256C19.7253 17.3253 20.3996 15.6975 20.3996 14.0001C20.3996 12.3027 19.7253 10.6748 18.5251 9.47461C17.3249 8.27438 15.697 7.6001 13.9996 7.6001C12.3022 7.6001 10.6744 8.27438 9.47413 9.47461C8.27389 10.6748 7.59961 12.3027 7.59961 14.0001C7.59961 15.6975 8.27389 17.3253 9.47413 18.5256C10.6744 19.7258 12.3022 20.4001 13.9996 20.4001V20.4001ZM13.6436 11.7345C13.5231 11.6541 13.3831 11.6079 13.2384 11.6009C13.0938 11.5939 12.9499 11.6263 12.8222 11.6946C12.6945 11.7629 12.5877 11.8646 12.5133 11.9889C12.4389 12.1131 12.3996 12.2553 12.3996 12.4001V15.6001C12.3996 15.7449 12.4389 15.8871 12.5133 16.0113C12.5877 16.1356 12.6945 16.2373 12.8222 16.3056C12.9499 16.3739 13.0938 16.4063 13.2384 16.3993C13.3831 16.3922 13.5231 16.3461 13.6436 16.2657L16.0436 14.6657C16.1532 14.5926 16.243 14.4937 16.3051 14.3776C16.3673 14.2614 16.3998 14.1318 16.3998 14.0001C16.3998 13.8684 16.3673 13.7388 16.3051 13.6226C16.243 13.5065 16.1532 13.4076 16.0436 13.3345L13.6436 11.7345V11.7345Z" fill="#FCFCFC"/>
<defs>
<linearGradient id="paint0_linear_15102_1307" x1="14" y1="0" x2="14" y2="28" gradientUnits="userSpaceOnUse">
<stop stop-color="#608060"/>
<stop offset="1" stop-color="#344835"/>
</linearGradient>
</defs>
</svg>
