<svg xmlns="http://www.w3.org/2000/svg" xmlns:xlink="http://www.w3.org/1999/xlink" width="100" zoomAndPan="magnify" viewBox="0 0 75 30.000001" height="40" preserveAspectRatio="xMidYMid meet" version="1.0"><defs><clipPath id="007e4e3106"><path d="M 65 8 L 72.34375 8 L 72.34375 19 L 65 19 Z M 65 8 " clip-rule="nonzero"/></clipPath><clipPath id="075ccdb9e0"><path d="M 2.644531 15 L 16 15 L 16 21.902344 L 2.644531 21.902344 Z M 2.644531 15 " clip-rule="nonzero"/></clipPath><clipPath id="298308b4e0"><path d="M 2.644531 15 L 12 15 L 12 21.902344 L 2.644531 21.902344 Z M 2.644531 15 " clip-rule="nonzero"/></clipPath><clipPath id="813ca37f33"><path d="M 2.644531 7.421875 L 16 7.421875 L 16 15 L 2.644531 15 Z M 2.644531 7.421875 " clip-rule="nonzero"/></clipPath><clipPath id="04ec30e5bb"><path d="M 6 7.421875 L 16 7.421875 L 16 15 L 6 15 Z M 6 7.421875 " clip-rule="nonzero"/></clipPath><clipPath id="fc09b8638b"><path d="M 7 7.421875 L 11 7.421875 L 11 11 L 7 11 Z M 7 7.421875 " clip-rule="nonzero"/></clipPath></defs><path fill="#ffffff" d="M 21.300781 17.402344 C 20.878906 17.730469 20.46875 17.980469 20.074219 18.144531 C 19.675781 18.308594 19.234375 18.390625 18.742188 18.390625 C 18.292969 18.390625 17.898438 18.300781 17.558594 18.125 C 17.21875 17.945312 16.957031 17.707031 16.773438 17.402344 C 16.589844 17.097656 16.5 16.769531 16.5 16.414062 C 16.5 15.9375 16.648438 15.527344 16.953125 15.191406 C 17.257812 14.851562 17.675781 14.625 18.203125 14.511719 C 18.316406 14.484375 18.589844 14.425781 19.03125 14.335938 C 19.472656 14.25 19.847656 14.164062 20.164062 14.089844 C 20.476562 14.015625 20.816406 13.925781 21.183594 13.820312 C 21.164062 13.355469 21.070312 13.019531 20.90625 12.800781 C 20.742188 12.585938 20.402344 12.476562 19.882812 12.476562 C 19.4375 12.476562 19.105469 12.539062 18.878906 12.664062 C 18.65625 12.789062 18.464844 12.972656 18.304688 13.222656 C 18.144531 13.46875 18.03125 13.632812 17.964844 13.710938 C 17.898438 13.792969 17.753906 13.832031 17.539062 13.832031 C 17.339844 13.832031 17.171875 13.769531 17.027344 13.640625 C 16.882812 13.515625 16.8125 13.355469 16.8125 13.15625 C 16.8125 12.851562 16.921875 12.550781 17.140625 12.261719 C 17.359375 11.96875 17.699219 11.730469 18.160156 11.542969 C 18.621094 11.355469 19.195312 11.261719 19.882812 11.261719 C 20.652344 11.261719 21.257812 11.351562 21.699219 11.53125 C 22.136719 11.714844 22.449219 12 22.632812 12.394531 C 22.8125 12.789062 22.902344 13.308594 22.902344 13.960938 C 22.902344 14.371094 22.902344 14.71875 22.898438 15.003906 C 22.898438 15.292969 22.894531 15.609375 22.890625 15.960938 C 22.890625 16.289062 22.945312 16.632812 23.054688 16.988281 C 23.164062 17.347656 23.21875 17.578125 23.21875 17.679688 C 23.21875 17.859375 23.132812 18.023438 22.964844 18.167969 C 22.796875 18.316406 22.605469 18.390625 22.390625 18.390625 C 22.210938 18.390625 22.035156 18.304688 21.859375 18.136719 C 21.683594 17.96875 21.496094 17.722656 21.300781 17.402344 Z M 21.183594 14.871094 C 20.929688 14.964844 20.554688 15.0625 20.066406 15.167969 C 19.578125 15.273438 19.238281 15.351562 19.050781 15.398438 C 18.863281 15.449219 18.683594 15.542969 18.511719 15.6875 C 18.339844 15.832031 18.253906 16.03125 18.253906 16.289062 C 18.253906 16.550781 18.355469 16.777344 18.558594 16.964844 C 18.757812 17.148438 19.019531 17.242188 19.34375 17.242188 C 19.691406 17.242188 20.011719 17.167969 20.304688 17.015625 C 20.597656 16.863281 20.8125 16.667969 20.949219 16.429688 C 21.105469 16.164062 21.183594 15.726562 21.183594 15.121094 Z M 21.183594 14.871094 " fill-opacity="1" fill-rule="evenodd"/><path fill="#ffffff" d="M 35.472656 15.261719 L 32.050781 15.261719 C 32.054688 15.660156 32.136719 16.007812 32.292969 16.3125 C 32.445312 16.617188 32.65625 16.84375 32.914062 17 C 33.171875 17.152344 33.457031 17.230469 33.769531 17.230469 C 33.976562 17.230469 34.167969 17.207031 34.34375 17.15625 C 34.515625 17.105469 34.683594 17.03125 34.847656 16.925781 C 35.007812 16.820312 35.15625 16.707031 35.292969 16.589844 C 35.429688 16.46875 35.609375 16.304688 35.828125 16.101562 C 35.917969 16.023438 36.042969 15.984375 36.210938 15.984375 C 36.390625 15.984375 36.535156 16.035156 36.648438 16.132812 C 36.757812 16.230469 36.8125 16.371094 36.8125 16.550781 C 36.8125 16.707031 36.753906 16.894531 36.628906 17.105469 C 36.503906 17.316406 36.316406 17.519531 36.066406 17.714844 C 35.816406 17.910156 35.503906 18.070312 35.125 18.199219 C 34.746094 18.328125 34.3125 18.390625 33.820312 18.390625 C 32.695312 18.390625 31.820312 18.070312 31.199219 17.429688 C 30.574219 16.789062 30.261719 15.917969 30.261719 14.820312 C 30.261719 14.300781 30.339844 13.820312 30.492188 13.378906 C 30.648438 12.9375 30.871094 12.558594 31.164062 12.242188 C 31.460938 11.925781 31.824219 11.683594 32.257812 11.511719 C 32.6875 11.34375 33.167969 11.261719 33.691406 11.261719 C 34.375 11.261719 34.960938 11.402344 35.453125 11.691406 C 35.941406 11.980469 36.308594 12.355469 36.550781 12.8125 C 36.796875 13.269531 36.917969 13.734375 36.917969 14.210938 C 36.917969 14.648438 36.789062 14.933594 36.539062 15.066406 C 36.285156 15.195312 35.929688 15.261719 35.472656 15.261719 Z M 32.050781 14.265625 L 35.222656 14.265625 C 35.179688 13.667969 35.019531 13.222656 34.738281 12.925781 C 34.460938 12.625 34.089844 12.476562 33.632812 12.476562 C 33.199219 12.476562 32.839844 12.628906 32.558594 12.929688 C 32.28125 13.230469 32.109375 13.675781 32.050781 14.265625 Z M 32.050781 14.265625 " fill-opacity="1" fill-rule="evenodd"/><path fill="#ffffff" d="M 43.425781 17.34375 C 43.191406 17.6875 42.84375 17.945312 42.382812 18.125 C 41.925781 18.300781 41.367188 18.390625 40.707031 18.390625 C 40.078125 18.390625 39.539062 18.292969 39.089844 18.101562 C 38.644531 17.910156 38.3125 17.667969 38.097656 17.378906 C 37.882812 17.09375 37.777344 16.800781 37.777344 16.511719 C 37.777344 16.320312 37.847656 16.15625 37.984375 16.019531 C 38.121094 15.882812 38.292969 15.8125 38.5 15.8125 C 38.6875 15.8125 38.828125 15.859375 38.925781 15.949219 C 39.023438 16.039062 39.117188 16.164062 39.207031 16.324219 C 39.386719 16.636719 39.601562 16.871094 39.851562 17.023438 C 40.101562 17.179688 40.441406 17.253906 40.875 17.253906 C 41.222656 17.253906 41.511719 17.175781 41.738281 17.023438 C 41.960938 16.867188 42.074219 16.6875 42.074219 16.484375 C 42.074219 16.179688 41.957031 15.953125 41.722656 15.8125 C 41.492188 15.671875 41.105469 15.535156 40.574219 15.410156 C 39.96875 15.257812 39.480469 15.101562 39.101562 14.9375 C 38.722656 14.773438 38.421875 14.554688 38.195312 14.285156 C 37.96875 14.015625 37.855469 13.6875 37.855469 13.292969 C 37.855469 12.941406 37.960938 12.609375 38.167969 12.296875 C 38.378906 11.988281 38.6875 11.738281 39.09375 11.550781 C 39.503906 11.367188 39.996094 11.273438 40.574219 11.273438 C 41.027344 11.273438 41.433594 11.320312 41.792969 11.414062 C 42.15625 11.507812 42.457031 11.632812 42.699219 11.792969 C 42.941406 11.949219 43.125 12.125 43.25 12.316406 C 43.375 12.511719 43.4375 12.699219 43.4375 12.882812 C 43.4375 13.082031 43.371094 13.246094 43.238281 13.375 C 43.101562 13.503906 42.910156 13.570312 42.664062 13.570312 C 42.484375 13.570312 42.332031 13.515625 42.203125 13.414062 C 42.078125 13.3125 41.933594 13.15625 41.773438 12.953125 C 41.640625 12.78125 41.484375 12.644531 41.304688 12.542969 C 41.125 12.441406 40.878906 12.386719 40.574219 12.386719 C 40.257812 12.386719 39.992188 12.457031 39.785156 12.589844 C 39.574219 12.726562 39.46875 12.894531 39.46875 13.09375 C 39.46875 13.277344 39.546875 13.429688 39.699219 13.546875 C 39.855469 13.664062 40.0625 13.761719 40.324219 13.835938 C 40.582031 13.914062 40.941406 14.007812 41.398438 14.121094 C 41.941406 14.253906 42.386719 14.410156 42.730469 14.59375 C 43.074219 14.777344 43.335938 14.996094 43.511719 15.246094 C 43.691406 15.496094 43.777344 15.78125 43.777344 16.101562 C 43.777344 16.585938 43.660156 17 43.425781 17.34375 Z M 43.425781 17.34375 " fill-opacity="1" fill-rule="evenodd"/><path fill="#ffffff" d="M 50.644531 16.101562 C 50.644531 16.585938 50.527344 17 50.292969 17.34375 C 50.058594 17.6875 49.710938 17.945312 49.25 18.125 C 48.792969 18.300781 48.234375 18.390625 47.574219 18.390625 C 46.945312 18.390625 46.410156 18.292969 45.960938 18.101562 C 45.511719 17.910156 45.179688 17.667969 44.964844 17.378906 C 44.753906 17.09375 44.644531 16.800781 44.644531 16.511719 C 44.644531 16.320312 44.714844 16.15625 44.851562 16.019531 C 44.988281 15.882812 45.160156 15.8125 45.371094 15.8125 C 45.554688 15.8125 45.695312 15.859375 45.792969 15.949219 C 45.890625 16.039062 45.984375 16.164062 46.074219 16.324219 C 46.253906 16.636719 46.46875 16.871094 46.71875 17.023438 C 46.96875 17.179688 47.308594 17.253906 47.742188 17.253906 C 48.09375 17.253906 48.378906 17.175781 48.605469 17.023438 C 48.828125 16.867188 48.941406 16.6875 48.941406 16.484375 C 48.941406 16.179688 48.824219 15.953125 48.589844 15.8125 C 48.359375 15.671875 47.976562 15.535156 47.441406 15.410156 C 46.839844 15.257812 46.347656 15.101562 45.96875 14.9375 C 45.589844 14.773438 45.289062 14.554688 45.0625 14.285156 C 44.835938 14.015625 44.722656 13.6875 44.722656 13.292969 C 44.722656 12.941406 44.828125 12.609375 45.035156 12.296875 C 45.246094 11.988281 45.554688 11.738281 45.964844 11.550781 C 46.371094 11.367188 46.863281 11.273438 47.441406 11.273438 C 47.894531 11.273438 48.300781 11.320312 48.660156 11.414062 C 49.023438 11.507812 49.324219 11.632812 49.566406 11.792969 C 49.808594 11.949219 49.992188 12.125 50.117188 12.316406 C 50.242188 12.511719 50.308594 12.699219 50.308594 12.882812 C 50.308594 13.082031 50.238281 13.246094 50.105469 13.375 C 49.96875 13.503906 49.777344 13.570312 49.53125 13.570312 C 49.351562 13.570312 49.199219 13.515625 49.074219 13.414062 C 48.945312 13.3125 48.800781 13.15625 48.640625 12.953125 C 48.507812 12.78125 48.351562 12.644531 48.171875 12.542969 C 47.992188 12.441406 47.75 12.386719 47.441406 12.386719 C 47.125 12.386719 46.863281 12.457031 46.652344 12.589844 C 46.441406 12.726562 46.339844 12.894531 46.339844 13.09375 C 46.339844 13.277344 46.414062 13.429688 46.570312 13.546875 C 46.722656 13.664062 46.929688 13.761719 47.191406 13.835938 C 47.453125 13.914062 47.808594 14.007812 48.269531 14.121094 C 48.808594 14.253906 49.253906 14.410156 49.597656 14.59375 C 49.941406 14.777344 50.203125 14.996094 50.378906 15.246094 C 50.558594 15.496094 50.644531 15.78125 50.644531 16.101562 Z M 50.644531 16.101562 " fill-opacity="1" fill-rule="evenodd"/><path fill="#ffffff" d="M 54.789062 17.324219 L 54.789062 9.734375 C 54.789062 9.382812 54.867188 9.117188 55.023438 8.9375 C 55.179688 8.757812 55.390625 8.667969 55.65625 8.667969 C 55.921875 8.667969 56.132812 8.757812 56.296875 8.933594 C 56.457031 9.113281 56.539062 9.378906 56.539062 9.734375 L 56.539062 17.324219 C 56.539062 17.679688 56.457031 17.945312 56.292969 18.125 C 56.128906 18.300781 55.914062 18.390625 55.65625 18.390625 C 55.398438 18.390625 55.191406 18.296875 55.03125 18.113281 C 54.871094 17.929688 54.789062 17.667969 54.789062 17.324219 Z M 54.789062 17.324219 " fill-opacity="1" fill-rule="evenodd"/><path fill="#ffffff" d="M 62.523438 17.402344 C 62.101562 17.730469 61.691406 17.980469 61.296875 18.144531 C 60.898438 18.308594 60.457031 18.390625 59.964844 18.390625 C 59.515625 18.390625 59.121094 18.300781 58.78125 18.125 C 58.441406 17.945312 58.179688 17.707031 57.996094 17.402344 C 57.8125 17.097656 57.722656 16.769531 57.722656 16.414062 C 57.722656 15.9375 57.871094 15.527344 58.175781 15.191406 C 58.480469 14.851562 58.898438 14.625 59.425781 14.511719 C 59.539062 14.484375 59.8125 14.425781 60.253906 14.335938 C 60.695312 14.25 61.070312 14.164062 61.386719 14.089844 C 61.699219 14.015625 62.039062 13.925781 62.40625 13.820312 C 62.386719 13.355469 62.292969 13.019531 62.128906 12.800781 C 61.964844 12.585938 61.625 12.476562 61.105469 12.476562 C 60.660156 12.476562 60.328125 12.539062 60.101562 12.664062 C 59.878906 12.789062 59.6875 12.972656 59.527344 13.222656 C 59.367188 13.46875 59.253906 13.632812 59.1875 13.710938 C 59.121094 13.792969 58.976562 13.832031 58.761719 13.832031 C 58.5625 13.832031 58.394531 13.769531 58.25 13.640625 C 58.105469 13.515625 58.035156 13.355469 58.035156 13.15625 C 58.035156 12.851562 58.144531 12.550781 58.363281 12.261719 C 58.582031 11.96875 58.921875 11.730469 59.382812 11.542969 C 59.84375 11.355469 60.417969 11.261719 61.105469 11.261719 C 61.875 11.261719 62.480469 11.351562 62.921875 11.53125 C 63.359375 11.714844 63.671875 12 63.851562 12.394531 C 64.035156 12.789062 64.125 13.308594 64.125 13.960938 C 64.125 14.371094 64.125 14.71875 64.121094 15.003906 C 64.121094 15.292969 64.117188 15.609375 64.113281 15.960938 C 64.113281 16.289062 64.167969 16.632812 64.277344 16.988281 C 64.386719 17.347656 64.441406 17.578125 64.441406 17.679688 C 64.441406 17.859375 64.355469 18.023438 64.1875 18.167969 C 64.019531 18.316406 63.828125 18.390625 63.613281 18.390625 C 63.433594 18.390625 63.257812 18.304688 63.082031 18.136719 C 62.90625 17.96875 62.71875 17.722656 62.523438 17.402344 Z M 62.40625 14.871094 C 62.152344 14.964844 61.777344 15.0625 61.289062 15.167969 C 60.800781 15.273438 60.460938 15.351562 60.273438 15.398438 C 60.085938 15.449219 59.90625 15.542969 59.734375 15.6875 C 59.5625 15.832031 59.476562 16.03125 59.476562 16.289062 C 59.476562 16.550781 59.578125 16.777344 59.78125 16.964844 C 59.980469 17.148438 60.242188 17.242188 60.566406 17.242188 C 60.914062 17.242188 61.234375 17.167969 61.527344 17.015625 C 61.820312 16.863281 62.035156 16.667969 62.171875 16.429688 C 62.328125 16.164062 62.40625 15.726562 62.40625 15.121094 Z M 62.40625 14.871094 " fill-opacity="1" fill-rule="evenodd"/><g clip-path="url(#007e4e3106)"><path fill="#ffffff" d="M 67.144531 9.667969 L 67.144531 12.34375 C 67.472656 12 67.808594 11.738281 68.152344 11.558594 C 68.492188 11.375 68.917969 11.285156 69.421875 11.285156 C 70.003906 11.285156 70.511719 11.421875 70.949219 11.699219 C 71.386719 11.976562 71.726562 12.375 71.96875 12.898438 C 72.210938 13.421875 72.332031 14.042969 72.332031 14.761719 C 72.332031 15.292969 72.265625 15.777344 72.128906 16.21875 C 71.996094 16.664062 71.800781 17.046875 71.542969 17.371094 C 71.285156 17.695312 70.976562 17.945312 70.609375 18.125 C 70.246094 18.300781 69.84375 18.390625 69.402344 18.390625 C 69.132812 18.390625 68.878906 18.359375 68.640625 18.292969 C 68.40625 18.230469 68.203125 18.144531 68.035156 18.042969 C 67.871094 17.9375 67.726562 17.828125 67.609375 17.71875 C 67.492188 17.605469 67.335938 17.441406 67.144531 17.21875 L 67.144531 17.390625 C 67.144531 17.71875 67.066406 17.96875 66.90625 18.136719 C 66.75 18.304688 66.550781 18.390625 66.304688 18.390625 C 66.058594 18.390625 65.859375 18.304688 65.710938 18.136719 C 65.566406 17.96875 65.492188 17.71875 65.492188 17.390625 L 65.492188 9.746094 C 65.492188 9.390625 65.5625 9.125 65.707031 8.941406 C 65.847656 8.761719 66.050781 8.667969 66.304688 8.667969 C 66.574219 8.667969 66.78125 8.753906 66.925781 8.929688 C 67.074219 9.101562 67.144531 9.347656 67.144531 9.667969 Z M 67.230469 14.871094 C 67.230469 15.566406 67.386719 16.101562 67.707031 16.476562 C 68.023438 16.851562 68.441406 17.039062 68.960938 17.039062 C 69.398438 17.039062 69.777344 16.847656 70.097656 16.464844 C 70.414062 16.082031 70.574219 15.53125 70.574219 14.820312 C 70.574219 14.355469 70.507812 13.960938 70.375 13.625 C 70.242188 13.292969 70.054688 13.035156 69.8125 12.851562 C 69.570312 12.671875 69.285156 12.582031 68.960938 12.582031 C 68.625 12.582031 68.328125 12.671875 68.070312 12.851562 C 67.808594 13.035156 67.601562 13.296875 67.453125 13.640625 C 67.304688 13.984375 67.230469 14.394531 67.230469 14.871094 Z M 67.230469 14.871094 " fill-opacity="1" fill-rule="evenodd"/></g><g clip-path="url(#075ccdb9e0)"><path fill="#0c5d35" d="M 14.613281 21.78125 C 14.332031 21.78125 14.054688 21.675781 13.839844 21.460938 L 10.230469 17.847656 C 9.949219 17.570312 9.574219 17.414062 9.175781 17.414062 C 8.777344 17.414062 8.402344 17.570312 8.121094 17.847656 L 4.511719 21.460938 C 4.085938 21.886719 3.390625 21.886719 2.964844 21.460938 C 2.539062 21.035156 2.539062 20.339844 2.964844 19.914062 L 6.578125 16.300781 C 7.269531 15.609375 8.191406 15.226562 9.175781 15.226562 C 10.160156 15.226562 11.082031 15.609375 11.773438 16.300781 L 15.386719 19.914062 C 15.8125 20.339844 15.8125 21.035156 15.386719 21.460938 C 15.171875 21.675781 14.894531 21.78125 14.613281 21.78125 Z M 14.613281 21.78125 " fill-opacity="1" fill-rule="evenodd"/></g><g clip-path="url(#298308b4e0)"><path fill="#0a8b42" d="M 11.671875 16.203125 C 10.191406 15.71875 8.402344 17.570312 8.121094 17.847656 L 4.511719 21.460938 C 4.085938 21.886719 3.394531 21.886719 2.964844 21.460938 C 2.539062 21.035156 2.539062 20.339844 2.964844 19.914062 L 6.578125 16.300781 C 7.269531 15.609375 8.191406 15.230469 9.175781 15.230469 C 9.175781 15.230469 10.011719 15.230469 10.53125 15.484375 C 11.050781 15.738281 11.398438 15.9375 11.671875 16.203125 Z M 11.671875 16.203125 " fill-opacity="1" fill-rule="evenodd"/></g><g clip-path="url(#813ca37f33)"><path fill="#0c5d35" d="M 3.738281 7.875 C 4.019531 7.875 4.296875 7.984375 4.511719 8.195312 L 8.125 11.808594 C 8.402344 12.089844 8.777344 12.242188 9.175781 12.242188 C 9.574219 12.242188 9.949219 12.089844 10.230469 11.808594 L 13.839844 8.195312 C 14.265625 7.769531 14.960938 7.769531 15.386719 8.195312 C 15.8125 8.625 15.8125 9.316406 15.386719 9.742188 L 11.773438 13.355469 C 11.082031 14.046875 10.160156 14.429688 9.175781 14.429688 C 8.191406 14.429688 7.269531 14.046875 6.578125 13.355469 L 2.964844 9.742188 C 2.539062 9.316406 2.539062 8.625 2.964844 8.195312 C 3.179688 7.984375 3.457031 7.875 3.738281 7.875 Z M 3.738281 7.875 " fill-opacity="1" fill-rule="evenodd"/></g><g clip-path="url(#04ec30e5bb)"><path fill="#0a8b42" d="M 6.679688 13.453125 C 8.160156 13.941406 9.949219 12.089844 10.230469 11.808594 L 13.839844 8.195312 C 14.265625 7.769531 14.960938 7.769531 15.386719 8.195312 C 15.8125 8.625 15.8125 9.316406 15.386719 9.742188 L 11.773438 13.355469 C 11.082031 14.046875 10.160156 14.429688 9.175781 14.429688 C 9.175781 14.429688 8.339844 14.425781 7.820312 14.171875 C 7.300781 13.917969 6.953125 13.722656 6.679688 13.453125 Z M 6.679688 13.453125 " fill-opacity="1" fill-rule="evenodd"/></g><g clip-path="url(#fc09b8638b)"><path fill="#0a8b42" d="M 10.792969 9.050781 C 10.792969 9.953125 10.0625 10.683594 9.164062 10.683594 C 8.261719 10.683594 7.53125 9.953125 7.53125 9.050781 C 7.53125 8.152344 8.261719 7.421875 9.164062 7.421875 C 10.0625 7.421875 10.792969 8.152344 10.792969 9.050781 Z M 10.792969 9.050781 " fill-opacity="1" fill-rule="evenodd"/></g><path fill="#ffffff" d="M 29.589844 17.125 L 28.0625 15.613281 C 27.734375 15.285156 27.292969 15.097656 26.828125 15.089844 L 26.777344 15.089844 C 26.292969 15.089844 25.835938 15.28125 25.496094 15.625 L 23.984375 17.152344 C 23.703125 17.4375 23.707031 17.898438 23.988281 18.179688 C 24.121094 18.3125 24.296875 18.386719 24.484375 18.390625 C 24.683594 18.394531 24.878906 18.316406 25.019531 18.175781 L 26.53125 16.648438 C 26.597656 16.582031 26.6875 16.542969 26.796875 16.542969 C 26.886719 16.542969 26.976562 16.582031 27.039062 16.644531 L 28.566406 18.15625 C 28.699219 18.289062 28.875 18.363281 29.0625 18.367188 L 29.082031 18.367188 C 29.277344 18.367188 29.457031 18.289062 29.59375 18.152344 C 29.875 17.867188 29.875 17.40625 29.589844 17.125 Z M 29.589844 17.125 " fill-opacity="1" fill-rule="evenodd"/><path fill="#ffffff" d="M 25.507812 14.019531 C 25.835938 14.34375 26.273438 14.53125 26.738281 14.542969 L 26.792969 14.542969 C 27.277344 14.539062 27.734375 14.347656 28.070312 14.003906 L 29.585938 12.476562 C 29.867188 12.191406 29.863281 11.730469 29.578125 11.449219 C 29.449219 11.316406 29.273438 11.242188 29.085938 11.238281 C 28.886719 11.234375 28.691406 11.3125 28.550781 11.453125 L 27.039062 12.980469 C 26.972656 13.050781 26.882812 13.085938 26.773438 13.085938 C 26.679688 13.085938 26.59375 13.046875 26.53125 12.984375 L 25.003906 11.472656 C 24.871094 11.339844 24.695312 11.265625 24.507812 11.261719 L 24.488281 11.261719 C 24.292969 11.261719 24.113281 11.339844 23.976562 11.476562 C 23.839844 11.613281 23.761719 11.796875 23.765625 11.992188 C 23.765625 12.1875 23.84375 12.367188 23.980469 12.503906 Z M 25.507812 14.019531 " fill-opacity="1" fill-rule="evenodd"/></svg>