<svg xmlns="http://www.w3.org/2000/svg" xmlns:xlink="http://www.w3.org/1999/xlink" width="100" zoomAndPan="magnify" viewBox="0 0 75 30.000001" height="40" preserveAspectRatio="xMidYMid meet" version="1.0"><defs><clipPath id="ca24be780d"><path d="M 2 8.589844 L 13 8.589844 L 13 20.199219 L 2 20.199219 Z M 2 8.589844 " clip-rule="nonzero"/></clipPath><clipPath id="c8c6e64d08"><path d="M 29 8.589844 L 36 8.589844 L 36 20 L 29 20 Z M 29 8.589844 " clip-rule="nonzero"/></clipPath><clipPath id="f56d509193"><path d="M 36 9 L 43 9 L 43 20.199219 L 36 20.199219 Z M 36 9 " clip-rule="nonzero"/></clipPath><clipPath id="5e50c95667"><path d="M 50 9 L 53 9 L 53 20.199219 L 50 20.199219 Z M 50 9 " clip-rule="nonzero"/></clipPath><clipPath id="f5343b918a"><path d="M 53 9 L 60 9 L 60 20.199219 L 53 20.199219 Z M 53 9 " clip-rule="nonzero"/></clipPath><clipPath id="f6bc52861f"><path d="M 60 9 L 67 9 L 67 20.199219 L 60 20.199219 Z M 60 9 " clip-rule="nonzero"/></clipPath><clipPath id="1ac74a3b0c"><path d="M 66 9 L 73.523438 9 L 73.523438 20.199219 L 66 20.199219 Z M 66 9 " clip-rule="nonzero"/></clipPath></defs><g clip-path="url(#ca24be780d)"><path fill="#fbc218" d="M 7.738281 10.183594 C 7.828125 9.867188 7.933594 9.632812 8.09375 9.398438 C 8.277344 9.140625 8.445312 8.972656 8.675781 8.882812 C 8.777344 8.839844 9.179688 9.210938 9.269531 9.210938 C 9.761719 9.230469 9.933594 9.289062 10.164062 10.027344 C 10.210938 10.183594 10.277344 10.5625 10.289062 10.730469 C 10.3125 11.167969 10.277344 11.578125 10.164062 11.984375 C 10.015625 12.519531 9.761719 12.933594 9.441406 13.167969 C 9.292969 13.28125 9.226562 13.300781 9.054688 13.335938 C 8.917969 13.359375 8.90625 13.359375 8.800781 13.347656 C 8.746094 13.347656 8.664062 13.324219 8.628906 13.3125 C 8.277344 13.191406 8.21875 13.101562 8.011719 12.554688 C 7.964844 12.417969 7.625 11.667969 7.613281 11.5 C 7.578125 11.007812 7.613281 10.597656 7.738281 10.171875 Z M 4.613281 9.769531 C 4.703125 9.679688 4.832031 9.589844 4.945312 9.554688 C 5.058594 9.523438 5.195312 9.511719 5.335938 9.523438 C 5.816406 9.589844 6.339844 10.046875 6.707031 10.707031 C 6.890625 11.042969 6.800781 11.277344 6.867188 11.660156 C 6.972656 12.140625 7.1875 12.699219 7.085938 13.078125 C 6.972656 13.515625 6.71875 13.804688 6.386719 13.894531 C 6.25 13.929688 6.03125 13.929688 5.882812 13.871094 C 5.710938 13.816406 5.527344 13.714844 5.378906 13.59375 C 4.957031 13.246094 4.613281 12.71875 4.394531 12.0625 C 4.339844 11.882812 4.359375 11.378906 4.351562 11.210938 C 4.304688 10.550781 4.316406 10.046875 4.613281 9.757812 Z M 3.546875 16.199219 C 3.089844 15.886719 2.722656 15.394531 2.484375 14.800781 C 2.4375 14.679688 2.425781 14.632812 2.382812 14.386719 C 2.324219 14.085938 2.175781 14.019531 2.175781 13.570312 C 2.175781 13.125 2.5625 12.945312 2.90625 12.789062 C 3.011719 12.742188 3.207031 12.699219 3.332031 12.699219 C 3.890625 12.710938 5.023438 14.019531 5.140625 14.351562 C 5.253906 14.6875 5.539062 15.964844 5.367188 16.03125 C 5.195312 16.097656 4.785156 16.476562 4.5 16.5 C 4.179688 16.523438 3.867188 16.421875 3.539062 16.199219 Z M 12.257812 18.277344 C 12.203125 18.367188 12.03125 18.582031 11.925781 18.679688 C 11.71875 18.894531 11.46875 19.050781 11.207031 19.152344 C 11.078125 19.195312 10.816406 19.25 10.679688 19.261719 C 10.449219 19.261719 10.074219 19.507812 9.730469 19.398438 C 9.386719 19.285156 8.960938 19.003906 8.746094 19.050781 C 8.585938 19.085938 8.585938 19.085938 8.425781 19.152344 C 8.332031 19.183594 8.105469 19.285156 7.933594 19.363281 C 7.257812 19.664062 7.222656 19.878906 6.832031 19.988281 C 6.640625 20.046875 6.25 20.125 6.089844 20.136719 C 5.746094 20.15625 5.449219 20.125 5.183594 20.023438 C 5.082031 19.980469 4.910156 19.902344 4.851562 19.84375 C 4.554688 19.609375 4.53125 19.003906 4.566406 18.582031 C 4.601562 18.15625 4.851562 17.550781 5.09375 17.058594 C 5.402344 16.421875 6.167969 15.574219 6.308594 15.304688 C 6.445312 15.035156 7.164062 14.566406 7.566406 14.433594 C 7.667969 14.398438 7.910156 14.351562 8.011719 14.34375 C 8.378906 14.308594 9.421875 14.578125 9.535156 14.6875 C 9.648438 14.800781 10.886719 15.527344 11.492188 16.175781 C 11.960938 16.691406 12.234375 17.117188 12.363281 17.53125 C 12.453125 17.832031 12.429688 18.078125 12.304688 18.277344 Z M 12.476562 14.464844 C 12.269531 14.777344 12.042969 15.191406 11.765625 15.316406 C 11.675781 15.347656 11.457031 15.394531 11.367188 15.382812 C 10.964844 15.359375 10.609375 15.070312 10.414062 14.589844 C 10.335938 14.410156 10.117188 14.242188 10.082031 14.019531 C 10.027344 13.660156 10.210938 13.378906 10.277344 13.011719 C 10.414062 12.25 10.726562 11.558594 11.226562 11.332031 C 11.34375 11.289062 11.652344 11.324219 11.765625 11.332031 C 12.144531 11.34375 12.488281 11.601562 12.695312 12.027344 C 13.070312 12.800781 12.992188 13.714844 12.488281 14.464844 Z M 12.476562 14.464844 " fill-opacity="1" fill-rule="nonzero"/></g><path fill="#03015c" d="M 22.015625 19.890625 L 21.957031 19.949219 L 21.628906 19.949219 L 20.832031 19.828125 L 20.636719 19.859375 L 20.320312 19.539062 L 20.351562 18.980469 L 20.230469 18.90625 L 20.230469 18.785156 L 20.308594 18.710938 L 20.039062 18.285156 L 20.113281 18.0625 L 19.632812 18.183594 L 19.257812 18.152344 L 18.144531 18.195312 L 17.996094 18.007812 L 17.828125 18.433594 L 17.589844 19.390625 L 17.53125 19.902344 L 16.042969 19.773438 L 16.617188 15.148438 L 17.277344 11.730469 L 17.425781 11.277344 L 17.425781 10.660156 L 17.53125 10.542969 L 17.53125 10.113281 L 17.679688 9.835938 L 17.769531 9.164062 L 19.855469 9.25 L 19.914062 9.808594 L 20.039062 10.195312 L 20.1875 10.488281 L 20.261719 10.546875 L 20.261719 11.148438 L 20.441406 11.445312 L 20.410156 11.765625 L 20.515625 11.753906 L 20.832031 13.261719 L 20.964844 13.4375 L 21.160156 14.570312 L 21.351562 15.277344 L 21.308594 15.394531 L 21.609375 16.496094 L 21.699219 17.023438 L 21.730469 17.539062 L 21.878906 17.816406 L 21.878906 17.890625 L 21.804688 18.011719 L 21.863281 18.171875 L 21.953125 19.113281 L 22.011719 19.902344 Z M 19.074219 11.90625 L 18.890625 11.90625 L 18.5 15.386719 L 18.636719 15.386719 L 18.636719 15.472656 L 18.398438 15.988281 L 18.261719 16.460938 L 18.578125 16.402344 L 19.78125 16.328125 L 19.074219 11.910156 Z M 19.074219 11.90625 " fill-opacity="1" fill-rule="nonzero"/><path fill="#03015c" d="M 28.316406 11.347656 L 28.316406 9.351562 L 28.363281 9.1875 L 28.226562 9.011719 L 22.667969 9.011719 L 22.636719 9.234375 L 22.636719 10.804688 L 22.578125 12.140625 L 22.757812 14.417969 L 22.757812 19.320312 L 22.714844 19.789062 L 24.304688 19.789062 L 24.261719 19.394531 L 24.261719 18.5 L 24.410156 17.957031 L 24.273438 17.769531 L 24.410156 17.679688 L 24.320312 17.183594 L 24.363281 17.050781 L 24.363281 16.886719 L 24.273438 16.566406 L 24.363281 16.359375 L 24.230469 14.613281 L 24.394531 14.539062 L 24.632812 14.585938 L 25.117188 14.585938 L 25.328125 14.539062 L 26.9375 19.867188 L 28.320312 19.867188 L 27.8125 17.414062 L 27.855469 17.238281 L 27.265625 14.566406 L 28.351562 14.484375 L 28.351562 11.664062 L 28.410156 11.414062 L 28.320312 11.355469 Z M 25.390625 10 C 25.429688 9.875 25.46875 9.785156 25.53125 9.691406 C 25.605469 9.589844 25.671875 9.523438 25.761719 9.488281 C 25.800781 9.472656 25.960938 9.617188 25.996094 9.617188 C 26.191406 9.625 26.257812 9.648438 26.347656 9.9375 C 26.367188 10 26.390625 10.148438 26.398438 10.214844 C 26.40625 10.386719 26.390625 10.550781 26.347656 10.707031 C 26.289062 10.921875 26.191406 11.082031 26.0625 11.175781 C 26.003906 11.21875 25.976562 11.226562 25.910156 11.242188 C 25.855469 11.25 25.851562 11.25 25.8125 11.246094 C 25.789062 11.246094 25.757812 11.238281 25.742188 11.234375 C 25.605469 11.183594 25.582031 11.148438 25.5 10.933594 C 25.480469 10.878906 25.347656 10.585938 25.34375 10.519531 C 25.328125 10.324219 25.34375 10.164062 25.390625 9.996094 Z M 24.160156 9.835938 C 24.199219 9.800781 24.246094 9.765625 24.292969 9.753906 C 24.335938 9.738281 24.390625 9.734375 24.445312 9.738281 C 24.632812 9.765625 24.84375 9.945312 24.984375 10.207031 C 25.058594 10.339844 25.023438 10.429688 25.050781 10.582031 C 25.089844 10.769531 25.175781 10.992188 25.136719 11.140625 C 25.089844 11.3125 24.992188 11.425781 24.859375 11.460938 C 24.804688 11.476562 24.71875 11.476562 24.660156 11.453125 C 24.59375 11.429688 24.523438 11.390625 24.464844 11.34375 C 24.296875 11.207031 24.160156 11 24.074219 10.738281 C 24.054688 10.667969 24.0625 10.472656 24.058594 10.40625 C 24.039062 10.144531 24.042969 9.945312 24.160156 9.832031 Z M 23.742188 12.367188 C 23.5625 12.246094 23.417969 12.050781 23.324219 11.820312 C 23.304688 11.769531 23.300781 11.753906 23.28125 11.65625 C 23.261719 11.535156 23.203125 11.511719 23.203125 11.335938 C 23.203125 11.15625 23.355469 11.085938 23.488281 11.027344 C 23.53125 11.007812 23.605469 10.992188 23.65625 10.992188 C 23.878906 10.996094 24.324219 11.511719 24.367188 11.640625 C 24.414062 11.773438 24.527344 12.277344 24.457031 12.304688 C 24.390625 12.328125 24.230469 12.480469 24.117188 12.488281 C 23.988281 12.496094 23.867188 12.457031 23.738281 12.367188 Z M 27.171875 13.1875 C 27.148438 13.222656 27.082031 13.308594 27.042969 13.347656 C 26.960938 13.429688 26.859375 13.492188 26.757812 13.53125 C 26.707031 13.550781 26.605469 13.570312 26.550781 13.574219 C 26.460938 13.574219 26.3125 13.671875 26.175781 13.628906 C 26.039062 13.585938 25.875 13.472656 25.789062 13.492188 C 25.726562 13.503906 25.726562 13.503906 25.664062 13.53125 C 25.625 13.542969 25.535156 13.585938 25.46875 13.617188 C 25.203125 13.734375 25.1875 13.816406 25.035156 13.863281 C 24.960938 13.882812 24.804688 13.914062 24.742188 13.917969 C 24.609375 13.929688 24.492188 13.914062 24.386719 13.875 C 24.347656 13.859375 24.277344 13.828125 24.257812 13.804688 C 24.140625 13.710938 24.128906 13.472656 24.144531 13.308594 C 24.15625 13.140625 24.257812 12.902344 24.351562 12.707031 C 24.472656 12.457031 24.773438 12.121094 24.828125 12.015625 C 24.882812 11.910156 25.167969 11.726562 25.324219 11.671875 C 25.363281 11.660156 25.460938 11.640625 25.5 11.636719 C 25.644531 11.625 26.054688 11.730469 26.097656 11.773438 C 26.144531 11.820312 26.632812 12.105469 26.871094 12.359375 C 27.054688 12.5625 27.164062 12.730469 27.210938 12.894531 C 27.25 13.011719 27.238281 13.109375 27.191406 13.1875 Z M 27.257812 11.6875 C 27.175781 11.808594 27.085938 11.972656 26.976562 12.019531 C 26.941406 12.035156 26.855469 12.050781 26.820312 12.046875 C 26.664062 12.039062 26.523438 11.925781 26.445312 11.734375 C 26.414062 11.664062 26.328125 11.597656 26.316406 11.511719 C 26.292969 11.371094 26.367188 11.257812 26.390625 11.113281 C 26.445312 10.8125 26.566406 10.542969 26.765625 10.453125 C 26.8125 10.4375 26.933594 10.449219 26.976562 10.453125 C 27.128906 10.457031 27.261719 10.558594 27.34375 10.726562 C 27.492188 11.03125 27.460938 11.390625 27.261719 11.6875 Z M 27.257812 11.6875 " fill-opacity="1" fill-rule="nonzero"/><g clip-path="url(#c8c6e64d08)"><path fill="#03015c" d="M 35.53125 19.644531 L 35.429688 19.746094 L 34.089844 19.625 L 30.832031 19.625 L 30.199219 19.65625 L 30.109375 19.027344 L 29.988281 17.585938 L 29.988281 16.355469 L 29.929688 16.058594 L 30.007812 15.296875 L 29.917969 15.035156 L 29.917969 13.625 L 30.066406 13.125 L 30.066406 11.6875 L 29.886719 11.480469 L 29.988281 11.390625 L 29.988281 8.925781 L 34.929688 8.925781 L 35.199219 8.882812 L 35.46875 9.132812 L 35.378906 9.472656 L 35.378906 11.71875 L 34.988281 11.660156 L 34.71875 11.527344 L 34.582031 11.539062 L 34.503906 11.421875 L 34.234375 11.496094 L 34.066406 11.496094 L 33.753906 11.410156 L 33.753906 11.308594 L 33.8125 11.054688 L 33.8125 10.394531 L 31.46875 10.394531 L 31.46875 11.175781 L 31.679688 13.320312 L 31.589844 13.527344 L 31.589844 16.800781 L 31.511719 16.875 L 31.632812 16.992188 L 31.542969 17.242188 L 31.542969 17.496094 L 31.632812 17.539062 L 31.589844 18.125 L 32.085938 18.199219 L 34.007812 18.199219 L 34.007812 16.964844 L 35.527344 16.582031 L 35.527344 19.648438 Z M 35.53125 19.644531 " fill-opacity="1" fill-rule="nonzero"/></g><g clip-path="url(#f56d509193)"><path fill="#03015c" d="M 41.226562 20.097656 L 40.730469 18.070312 L 38.25 18.070312 L 37.902344 20.023438 L 36.507812 20.023438 L 37.601562 12.125 L 37.679688 12.097656 L 37.859375 11.097656 L 38.140625 10.140625 L 38.21875 9.289062 L 39.660156 9.289062 L 40.277344 9.246094 L 40.382812 9.566406 L 40.367188 9.890625 L 40.457031 9.964844 L 40.773438 11.050781 L 41.167969 12.738281 L 41.992188 17.066406 L 42.488281 20.089844 L 41.226562 20.089844 Z M 40.414062 16.339844 L 39.378906 11.734375 L 39.378906 12.777344 L 38.65625 16.347656 L 40.414062 16.347656 Z M 40.414062 16.339844 " fill-opacity="1" fill-rule="nonzero"/></g><path fill="#03015c" d="M 49.5 15.535156 L 49.558594 15.59375 L 49.480469 15.8125 L 49.527344 15.855469 L 49.4375 17.339844 L 49.539062 17.503906 L 49.4375 17.546875 L 49.4375 17.710938 L 49.558594 17.769531 L 49.4375 17.914062 L 49.359375 18.207031 L 49.300781 19.882812 L 47.589844 19.882812 L 47.5 19.707031 L 47.542969 19.574219 L 46.988281 18.441406 L 46.222656 16.695312 L 45.398438 14.59375 L 45.082031 13.609375 L 45.082031 14.636719 L 45.171875 14.84375 L 45.097656 15.269531 L 45.21875 16.152344 L 45.203125 16.269531 L 45.25 16.371094 L 45.128906 19.703125 L 44.871094 19.777344 L 44.285156 19.777344 L 44.207031 19.703125 L 44.085938 19.746094 L 43.757812 19.746094 L 43.53125 19.703125 L 43.277344 12.761719 L 43.277344 10.703125 L 43.457031 9.074219 L 43.832031 9.148438 L 44.597656 9.148438 L 44.851562 9.0625 L 45.980469 11.496094 L 46.070312 11.554688 L 46.039062 11.613281 L 46.207031 11.964844 L 46.21875 12.140625 L 46.726562 13.183594 L 47.554688 15.519531 L 47.628906 15.59375 L 47.359375 9.457031 L 47.496094 9.105469 L 49.070312 9.105469 L 49.253906 10.941406 L 49.253906 11.371094 L 49.375 12.46875 L 49.433594 12.527344 L 49.433594 12.671875 L 49.34375 12.71875 L 49.492188 15.535156 Z M 49.5 15.535156 " fill-opacity="1" fill-rule="nonzero"/><g clip-path="url(#5e50c95667)"><path fill="#03015c" d="M 52.578125 9.179688 L 52.578125 18.585938 L 52.441406 20.140625 L 50.625 19.910156 L 50.625 9.371094 L 50.492188 9.324219 L 50.777344 9.179688 Z M 52.578125 9.179688 " fill-opacity="1" fill-rule="nonzero"/></g><g clip-path="url(#f5343b918a)"><path fill="#03015c" d="M 59.605469 15.679688 L 59.558594 15.738281 L 59.558594 16.28125 L 59.515625 16.558594 L 59.605469 16.675781 L 59.605469 16.851562 L 59.546875 16.839844 L 59.515625 17.160156 L 59.574219 17.21875 L 59.484375 18.011719 L 59.484375 18.890625 L 59.378906 19.035156 L 59.378906 19.929688 L 59.289062 20.121094 L 58.132812 20.121094 L 57.875 20.03125 L 57.707031 19.929688 L 57.707031 15.898438 L 57.828125 14.136719 L 57.5 15.191406 L 57.378906 15.867188 L 57.152344 16.496094 L 57.078125 17.242188 L 56.835938 17.363281 L 56.613281 17.304688 L 56.402344 16.46875 L 55.441406 13.871094 L 55.5625 16.21875 L 55.5625 18.566406 L 55.414062 19.898438 L 55.355469 20.03125 L 54.078125 20.03125 L 53.808594 19.195312 L 53.808594 9.789062 L 54.035156 9.230469 L 54.15625 9.140625 L 55.191406 9.097656 L 56.421875 11.753906 L 56.660156 12.632812 L 56.660156 12.53125 L 56.785156 12.253906 L 57.175781 10.4375 L 57.34375 10.273438 L 57.75 9.140625 L 59.203125 9.140625 L 59.507812 11.578125 L 59.550781 11.578125 L 59.550781 11.652344 L 59.472656 11.726562 L 59.566406 12.019531 L 59.566406 13.460938 L 59.65625 13.625 L 59.550781 13.875 L 59.609375 15.679688 Z M 59.605469 15.679688 " fill-opacity="1" fill-rule="nonzero"/></g><g clip-path="url(#f6bc52861f)"><path fill="#03015c" d="M 65.195312 20.097656 L 64.699219 18.070312 L 62.21875 18.070312 L 61.871094 20.023438 L 60.476562 20.023438 L 61.570312 12.125 L 61.648438 12.097656 L 61.828125 11.097656 L 62.109375 10.140625 L 62.1875 9.289062 L 63.628906 9.289062 L 64.246094 9.246094 L 64.351562 9.566406 L 64.335938 9.890625 L 64.425781 9.964844 L 64.742188 11.050781 L 65.136719 12.738281 L 65.960938 17.066406 L 66.457031 20.089844 L 65.195312 20.089844 Z M 64.382812 16.339844 L 63.347656 11.734375 L 63.347656 12.777344 L 62.625 16.347656 L 64.382812 16.347656 Z M 64.382812 16.339844 " fill-opacity="1" fill-rule="nonzero"/></g><g clip-path="url(#1ac74a3b0c)"><path fill="#03015c" d="M 73.03125 20.011719 L 66.980469 20.011719 L 66.980469 11.117188 L 66.902344 9.53125 L 66.84375 9.210938 L 68.554688 9.210938 L 68.464844 9.972656 L 68.464844 10.457031 L 68.703125 10.472656 L 68.703125 13.992188 L 68.828125 14.125 L 68.828125 16.945312 L 68.769531 17.871094 L 68.691406 18.207031 L 68.796875 18.285156 L 68.808594 18.371094 L 71.03125 18.285156 L 71.0625 18.152344 L 71.152344 18.164062 L 71.230469 18.238281 L 73.03125 18.238281 L 73.03125 20.015625 Z M 73.03125 20.011719 " fill-opacity="1" fill-rule="nonzero"/></g></svg>