<svg xmlns="http://www.w3.org/2000/svg" xmlns:xlink="http://www.w3.org/1999/xlink" width="100" zoomAndPan="magnify" viewBox="0 0 75 30.000001" height="40" preserveAspectRatio="xMidYMid meet" version="1.0"><defs><clipPath id="becd12f101"><path d="M 2.101562 6.914062 L 72 6.914062 L 72 22.398438 L 2.101562 22.398438 Z M 2.101562 6.914062 " clip-rule="nonzero"/></clipPath></defs><g clip-path="url(#becd12f101)"><path fill="#3974ba" d="M 12.574219 22.398438 C 6.800781 22.398438 2.101562 18.945312 2.101562 14.65625 C 2.101562 10.386719 6.800781 6.914062 12.574219 6.914062 C 18.347656 6.914062 23.050781 10.386719 23.050781 14.65625 C 23.050781 18.945312 18.351562 22.398438 12.574219 22.398438 Z M 12.574219 7.277344 C 7.0625 7.277344 2.59375 10.582031 2.59375 14.65625 C 2.59375 18.730469 7.0625 22.035156 12.574219 22.035156 C 18.085938 22.035156 22.558594 18.730469 22.558594 14.65625 C 22.558594 10.601562 18.085938 7.277344 12.574219 7.277344 Z M 21.453125 16.863281 C 21.445312 16.871094 21.429688 16.878906 21.398438 16.871094 C 21.375 16.863281 21.367188 16.855469 21.367188 16.84375 C 21.367188 16.832031 21.71875 16.066406 21.714844 15.191406 C 21.710938 14.246094 21.191406 13.667969 20.527344 13.667969 C 20.117188 13.667969 19.828125 13.882812 19.828125 14.207031 C 19.828125 14.785156 20.785156 14.828125 20.785156 16.09375 C 20.785156 16.605469 20.640625 17.101562 20.410156 17.636719 C 19.335938 20.316406 15.910156 21.5625 12.574219 21.5625 C 11.035156 21.5625 9.941406 21.328125 9.617188 21.21875 C 9.605469 21.214844 9.59375 21.195312 9.605469 21.175781 C 9.613281 21.160156 9.632812 21.152344 9.644531 21.15625 C 9.777344 21.195312 10.71875 21.414062 11.878906 21.414062 C 13.152344 21.414062 13.910156 21.027344 13.910156 20.554688 C 13.910156 20.253906 13.589844 20.019531 13.183594 20.019531 C 12.398438 20.019531 12.339844 20.746094 10.660156 20.746094 C 9.933594 20.746094 9.296875 20.640625 8.542969 20.46875 C 4.945312 19.652344 3.230469 17.140625 3.230469 14.65625 C 3.234375 13.445312 3.691406 12.480469 3.699219 12.46875 C 3.703125 12.464844 3.726562 12.457031 3.753906 12.464844 C 3.777344 12.46875 3.785156 12.488281 3.785156 12.492188 C 3.742188 12.59375 3.433594 13.285156 3.433594 14.140625 C 3.433594 15.082031 3.957031 15.640625 4.625 15.640625 C 5.003906 15.640625 5.320312 15.429688 5.320312 15.128906 C 5.320312 14.546875 4.363281 14.484375 4.363281 13.238281 C 4.363281 12.703125 4.507812 12.230469 4.742188 11.675781 C 5.84375 9.015625 9.238281 7.769531 12.574219 7.75 C 14.125 7.742188 15.484375 8.085938 15.535156 8.113281 C 15.546875 8.121094 15.554688 8.136719 15.546875 8.152344 C 15.535156 8.175781 15.515625 8.175781 15.503906 8.175781 C 15.488281 8.175781 14.605469 7.902344 13.269531 7.902344 C 12.023438 7.902344 11.242188 8.289062 11.242188 8.78125 C 11.242188 9.058594 11.53125 9.296875 11.964844 9.296875 C 12.75 9.296875 12.804688 8.585938 14.492188 8.585938 C 15.214844 8.585938 15.855469 8.695312 16.609375 8.867188 C 20.238281 9.683594 21.886719 12.210938 21.917969 14.65625 C 21.933594 15.90625 21.457031 16.855469 21.453125 16.863281 Z M 16.460938 15.019531 C 15.476562 15.019531 14.71875 15.558594 14.71875 16.199219 C 14.71875 16.734375 15.15625 17.164062 15.738281 17.164062 C 15.941406 17.164062 16.144531 17.078125 16.144531 16.886719 C 16.144531 16.605469 15.644531 16.539062 15.679688 16.121094 C 15.707031 15.847656 16.058594 15.664062 16.402344 15.664062 C 17.101562 15.664062 17.425781 16.160156 17.425781 16.675781 C 17.398438 17.46875 16.609375 18.023438 15.679688 18.023438 C 14.460938 18.023438 13.679688 17.164062 13.679688 16.242188 C 13.679688 14.871094 14.898438 14.335938 15.535156 14.207031 C 15.542969 14.207031 17.203125 14.425781 17.152344 13.882812 C 17.128906 13.644531 16.648438 13.554688 16.300781 13.542969 C 15.917969 13.53125 15.527344 13.632812 15.527344 13.632812 C 15.328125 13.558594 15.1875 13.414062 15.101562 13.242188 C 16.292969 12.578125 17.132812 11.933594 17.132812 11.203125 C 17.132812 10.816406 16.78125 10.472656 16.117188 10.472656 C 14.925781 10.472656 14.027344 11.589844 14.027344 12.597656 C 14.027344 12.769531 14.027344 12.9375 14.085938 13.089844 C 13.328125 13.5 12.769531 13.75 11.753906 14.203125 C 11.753906 14.109375 11.78125 13.867188 11.863281 13.550781 C 12.214844 13.273438 12.691406 12.855469 12.691406 12.535156 C 12.691406 12.382812 12.574219 12.253906 12.34375 12.253906 C 11.761719 12.253906 11.328125 12.898438 11.210938 13.347656 C 10.949219 13.585938 10.425781 13.882812 9.992188 13.882812 C 9.644531 13.882812 9.53125 13.648438 9.5 13.5625 C 10.601562 13.285156 11.964844 12.171875 11.964844 11.160156 C 11.964844 10.945312 11.847656 10.472656 10.980469 10.472656 C 9.675781 10.472656 8.570312 11.910156 8.570312 13.027344 C 8.105469 13.027344 7.933594 12.660156 7.933594 12.382812 C 7.933594 12.105469 8.078125 11.828125 8.078125 11.742188 C 8.078125 11.652344 8.019531 11.546875 7.84375 11.546875 C 7.410156 11.546875 7.148438 11.976562 7.148438 12.46875 C 7.179688 13.15625 7.789062 13.585938 8.601562 13.628906 C 8.714844 14.035156 9.210938 14.421875 9.820312 14.421875 C 10.195312 14.421875 10.660156 14.335938 10.980469 14.121094 C 10.949219 14.269531 10.921875 14.398438 10.894531 14.527344 C 9.617188 15.023438 8.6875 15.363281 7.847656 15.921875 C 7.179688 16.371094 6.800781 16.972656 6.800781 17.445312 C 6.800781 18.089844 7.351562 18.6875 8.484375 18.6875 C 9.820312 18.6875 10.835938 17.894531 11.328125 16.800781 C 11.5625 16.285156 11.652344 15.539062 11.710938 14.851562 C 13.046875 14.292969 13.679688 13.972656 14.375 13.605469 C 14.460938 13.714844 14.546875 13.800781 14.664062 13.863281 C 14.054688 14.101562 12.605469 14.765625 12.605469 16.328125 C 12.605469 17.445312 13.621094 18.6875 15.621094 18.6875 C 17.277344 18.6875 18.410156 17.679688 18.410156 16.714844 C 18.40625 15.835938 17.738281 15.019531 16.460938 15.019531 Z M 8.484375 18.023438 C 8.050781 18.039062 7.757812 17.832031 7.757812 17.488281 C 7.757812 16.566406 9.488281 15.6875 10.792969 15.214844 C 10.5625 16.5 9.972656 17.972656 8.484375 18.023438 Z M 9.441406 12.960938 C 9.441406 12.253906 10.386719 10.90625 10.964844 11.050781 C 11.648438 11.21875 10.398438 12.574219 9.441406 12.960938 Z M 14.925781 12.640625 C 14.925781 11.761719 15.730469 10.90625 16.171875 11.066406 C 16.671875 11.253906 15.796875 12.082031 14.925781 12.640625 Z M 35.253906 13.285156 L 35.253906 15.9375 C 35.253906 16.035156 35.1875 16.082031 35.0625 16.082031 C 34.933594 16.082031 34.871094 16.035156 34.871094 15.9375 L 34.871094 13.285156 L 33.863281 13.285156 C 33.730469 13.285156 33.667969 13.238281 33.667969 13.148438 C 33.667969 13.054688 33.730469 13.007812 33.863281 13.007812 L 36.261719 13.007812 C 36.386719 13.007812 36.453125 13.054688 36.453125 13.148438 C 36.453125 13.238281 36.386719 13.285156 36.261719 13.285156 Z M 37.332031 14.050781 C 37.410156 13.945312 37.511719 13.863281 37.632812 13.808594 C 37.757812 13.753906 37.902344 13.726562 38.074219 13.726562 C 38.222656 13.726562 38.332031 13.742188 38.40625 13.773438 C 38.476562 13.804688 38.511719 13.839844 38.511719 13.886719 C 38.511719 13.921875 38.5 13.957031 38.476562 13.984375 C 38.46875 14 38.453125 14.011719 38.4375 14.019531 C 38.417969 14.027344 38.398438 14.03125 38.378906 14.027344 C 38.347656 14.027344 38.316406 14.023438 38.289062 14.015625 C 38.214844 14 38.140625 13.992188 38.066406 13.992188 C 37.84375 13.992188 37.664062 14.050781 37.53125 14.167969 C 37.398438 14.285156 37.328125 14.441406 37.328125 14.632812 L 37.328125 15.945312 C 37.328125 16.035156 37.265625 16.082031 37.140625 16.082031 C 37.015625 16.082031 36.953125 16.035156 36.953125 15.945312 L 36.953125 13.894531 C 36.953125 13.804688 37.015625 13.757812 37.140625 13.757812 C 37.265625 13.757812 37.328125 13.804688 37.328125 13.894531 Z M 41.433594 15.945312 C 41.433594 16.035156 41.371094 16.082031 41.242188 16.082031 C 41.117188 16.082031 41.054688 16.035156 41.054688 15.945312 L 41.054688 15.726562 C 40.953125 15.855469 40.824219 15.953125 40.667969 16.015625 C 40.511719 16.082031 40.328125 16.113281 40.117188 16.113281 C 39.71875 16.113281 39.410156 16.003906 39.183594 15.785156 C 38.957031 15.566406 38.84375 15.277344 38.84375 14.917969 C 38.84375 14.5625 38.960938 14.277344 39.191406 14.054688 C 39.421875 13.835938 39.746094 13.726562 40.164062 13.726562 C 40.363281 13.726562 40.539062 13.757812 40.6875 13.816406 C 40.832031 13.875 40.957031 13.964844 41.054688 14.082031 L 41.054688 13.894531 C 41.054688 13.804688 41.117188 13.757812 41.242188 13.757812 C 41.371094 13.757812 41.433594 13.804688 41.433594 13.894531 Z M 41.054688 14.699219 C 41.054688 14.492188 40.972656 14.320312 40.808594 14.191406 C 40.640625 14.058594 40.429688 13.996094 40.175781 13.996094 C 39.875 13.996094 39.640625 14.082031 39.472656 14.253906 C 39.304688 14.429688 39.222656 14.652344 39.222656 14.917969 C 39.222656 15.207031 39.300781 15.433594 39.460938 15.601562 C 39.621094 15.765625 39.859375 15.851562 40.175781 15.851562 C 40.433594 15.851562 40.648438 15.785156 40.8125 15.652344 C 40.972656 15.523438 41.054688 15.351562 41.054688 15.148438 Z M 44.746094 15.945312 C 44.746094 16.035156 44.683594 16.082031 44.5625 16.082031 C 44.433594 16.082031 44.371094 16.035156 44.371094 15.945312 L 44.371094 14.621094 C 44.371094 14.417969 44.308594 14.261719 44.183594 14.152344 C 44.058594 14.046875 43.875 13.992188 43.636719 13.992188 C 43.363281 13.992188 43.140625 14.066406 42.964844 14.210938 C 42.792969 14.351562 42.707031 14.546875 42.707031 14.792969 L 42.707031 15.945312 C 42.707031 16.035156 42.644531 16.082031 42.515625 16.082031 C 42.394531 16.082031 42.332031 16.035156 42.332031 15.945312 L 42.332031 13.898438 C 42.332031 13.804688 42.394531 13.757812 42.515625 13.757812 C 42.644531 13.757812 42.707031 13.804688 42.707031 13.898438 L 42.707031 14.136719 C 42.800781 14.011719 42.9375 13.910156 43.109375 13.835938 C 43.28125 13.765625 43.472656 13.726562 43.683594 13.726562 C 44.027344 13.726562 44.292969 13.800781 44.472656 13.945312 C 44.65625 14.09375 44.746094 14.292969 44.746094 14.542969 Z M 46.492188 16.113281 C 46.332031 16.113281 46.1875 16.101562 46.054688 16.074219 C 45.925781 16.050781 45.796875 16.011719 45.667969 15.957031 C 45.542969 15.90625 45.464844 15.863281 45.441406 15.839844 C 45.414062 15.8125 45.398438 15.777344 45.402344 15.742188 C 45.40625 15.710938 45.421875 15.675781 45.453125 15.652344 C 45.46875 15.640625 45.484375 15.628906 45.507812 15.621094 C 45.527344 15.613281 45.546875 15.609375 45.570312 15.609375 C 45.621094 15.609375 45.667969 15.625 45.714844 15.652344 C 45.816406 15.707031 45.9375 15.753906 46.078125 15.792969 C 46.222656 15.832031 46.359375 15.847656 46.492188 15.847656 C 46.71875 15.847656 46.898438 15.816406 47.023438 15.746094 C 47.152344 15.675781 47.214844 15.585938 47.214844 15.46875 C 47.214844 15.359375 47.167969 15.277344 47.066406 15.21875 C 46.964844 15.164062 46.828125 15.121094 46.660156 15.09375 C 46.382812 15.050781 46.183594 15.015625 46.058594 14.988281 C 45.9375 14.960938 45.828125 14.921875 45.742188 14.871094 C 45.652344 14.824219 45.582031 14.761719 45.527344 14.683594 C 45.476562 14.609375 45.449219 14.515625 45.449219 14.398438 C 45.449219 14.199219 45.554688 14.039062 45.761719 13.914062 C 45.964844 13.789062 46.230469 13.726562 46.550781 13.726562 C 46.785156 13.726562 47.003906 13.761719 47.207031 13.832031 C 47.410156 13.902344 47.511719 13.972656 47.511719 14.042969 C 47.511719 14.078125 47.496094 14.113281 47.457031 14.144531 C 47.421875 14.179688 47.382812 14.195312 47.339844 14.195312 C 47.296875 14.195312 47.25 14.179688 47.191406 14.152344 C 46.984375 14.046875 46.769531 13.992188 46.542969 13.992188 C 46.3125 13.992188 46.136719 14.03125 46.011719 14.101562 C 45.886719 14.175781 45.828125 14.269531 45.828125 14.378906 C 45.828125 14.46875 45.855469 14.539062 45.917969 14.59375 C 45.980469 14.648438 46.0625 14.691406 46.160156 14.71875 C 46.261719 14.746094 46.445312 14.78125 46.710938 14.824219 C 47.0625 14.878906 47.296875 14.957031 47.414062 15.058594 C 47.535156 15.15625 47.59375 15.289062 47.59375 15.445312 C 47.59375 15.636719 47.496094 15.796875 47.296875 15.921875 C 47.101562 16.050781 46.832031 16.113281 46.492188 16.113281 Z M 49.535156 16.113281 C 49.339844 16.113281 49.171875 16.082031 49.027344 16.027344 C 48.878906 15.96875 48.757812 15.878906 48.664062 15.761719 L 48.664062 16.882812 C 48.664062 16.972656 48.597656 17.019531 48.46875 17.019531 C 48.347656 17.019531 48.285156 16.972656 48.285156 16.882812 L 48.285156 13.898438 C 48.285156 13.804688 48.347656 13.757812 48.46875 13.757812 C 48.597656 13.757812 48.664062 13.804688 48.664062 13.898438 L 48.664062 14.066406 C 48.75 13.960938 48.871094 13.878906 49.027344 13.816406 C 49.183594 13.757812 49.355469 13.726562 49.539062 13.726562 C 49.957031 13.726562 50.285156 13.832031 50.519531 14.035156 C 50.753906 14.242188 50.871094 14.527344 50.871094 14.898438 C 50.871094 15.269531 50.75 15.566406 50.507812 15.785156 C 50.265625 16.003906 49.941406 16.113281 49.535156 16.113281 Z M 49.539062 15.847656 C 49.824219 15.847656 50.054688 15.761719 50.230469 15.59375 C 50.40625 15.421875 50.496094 15.191406 50.496094 14.898438 C 50.496094 14.613281 50.410156 14.394531 50.242188 14.234375 C 50.074219 14.074219 49.839844 13.992188 49.539062 13.992188 C 49.28125 13.992188 49.070312 14.058594 48.90625 14.191406 C 48.746094 14.320312 48.664062 14.488281 48.664062 14.691406 L 48.664062 15.148438 C 48.664062 15.355469 48.746094 15.523438 48.910156 15.65625 C 49.074219 15.785156 49.28125 15.847656 49.539062 15.847656 Z M 52.769531 16.113281 C 52.375 16.113281 52.046875 16.003906 51.796875 15.792969 C 51.542969 15.578125 51.417969 15.285156 51.417969 14.921875 C 51.417969 14.542969 51.542969 14.246094 51.796875 14.039062 C 52.046875 13.832031 52.375 13.726562 52.769531 13.726562 C 53.171875 13.726562 53.5 13.832031 53.75 14.042969 C 54.003906 14.253906 54.132812 14.546875 54.132812 14.921875 C 54.132812 15.285156 54.003906 15.574219 53.75 15.789062 C 53.496094 16.003906 53.171875 16.113281 52.769531 16.113281 Z M 52.769531 13.992188 C 52.496094 13.992188 52.261719 14.070312 52.074219 14.226562 C 51.886719 14.378906 51.792969 14.609375 51.792969 14.921875 C 51.792969 15.230469 51.890625 15.460938 52.089844 15.617188 C 52.285156 15.773438 52.511719 15.847656 52.769531 15.847656 C 53.03125 15.847656 53.261719 15.773438 53.460938 15.617188 C 53.65625 15.460938 53.753906 15.230469 53.753906 14.921875 C 53.753906 14.617188 53.664062 14.386719 53.476562 14.230469 C 53.292969 14.074219 53.058594 13.992188 52.769531 13.992188 Z M 55.230469 14.050781 C 55.3125 13.945312 55.410156 13.863281 55.535156 13.808594 C 55.65625 13.753906 55.804688 13.726562 55.976562 13.726562 C 56.125 13.726562 56.234375 13.742188 56.304688 13.773438 C 56.378906 13.804688 56.414062 13.839844 56.414062 13.886719 C 56.414062 13.921875 56.402344 13.957031 56.378906 13.984375 C 56.371094 14 56.355469 14.011719 56.339844 14.019531 C 56.320312 14.027344 56.300781 14.03125 56.28125 14.027344 C 56.25 14.027344 56.21875 14.023438 56.1875 14.015625 C 56.117188 14 56.042969 13.992188 55.96875 13.992188 C 55.746094 13.992188 55.566406 14.050781 55.433594 14.167969 C 55.296875 14.285156 55.230469 14.441406 55.230469 14.632812 L 55.230469 15.945312 C 55.230469 16.035156 55.167969 16.082031 55.042969 16.082031 C 54.917969 16.082031 54.855469 16.035156 54.855469 15.945312 L 54.855469 13.894531 C 54.855469 13.804688 54.917969 13.757812 55.042969 13.757812 C 55.167969 13.757812 55.230469 13.804688 55.230469 13.894531 Z M 57.5625 14.027344 L 57.5625 15.460938 C 57.5625 15.589844 57.589844 15.6875 57.652344 15.753906 C 57.710938 15.816406 57.800781 15.847656 57.921875 15.847656 C 57.96875 15.847656 58.007812 15.84375 58.042969 15.839844 C 58.074219 15.832031 58.132812 15.816406 58.210938 15.789062 C 58.234375 15.78125 58.253906 15.777344 58.277344 15.777344 C 58.300781 15.777344 58.320312 15.78125 58.335938 15.789062 C 58.355469 15.792969 58.371094 15.804688 58.382812 15.816406 C 58.414062 15.84375 58.429688 15.871094 58.429688 15.90625 C 58.429688 15.960938 58.378906 16.007812 58.273438 16.050781 C 58.167969 16.089844 58.046875 16.113281 57.910156 16.113281 C 57.652344 16.113281 57.464844 16.0625 57.355469 15.957031 C 57.242188 15.851562 57.183594 15.695312 57.183594 15.484375 L 57.183594 14.027344 L 56.84375 14.027344 C 56.71875 14.027344 56.65625 13.988281 56.65625 13.902344 C 56.65625 13.816406 56.71875 13.773438 56.84375 13.773438 L 57.183594 13.773438 L 57.183594 13.246094 C 57.183594 13.15625 57.246094 13.109375 57.371094 13.109375 C 57.5 13.109375 57.5625 13.15625 57.5625 13.246094 L 57.5625 13.773438 L 58.078125 13.773438 C 58.203125 13.773438 58.265625 13.816406 58.265625 13.902344 C 58.265625 13.988281 58.203125 14.027344 58.078125 14.027344 Z M 61.351562 15.945312 C 61.351562 16.035156 61.285156 16.082031 61.160156 16.082031 C 61.035156 16.082031 60.972656 16.035156 60.972656 15.945312 L 60.972656 15.726562 C 60.871094 15.855469 60.742188 15.953125 60.585938 16.015625 C 60.429688 16.082031 60.246094 16.113281 60.035156 16.113281 C 59.636719 16.113281 59.324219 16.003906 59.101562 15.785156 C 58.875 15.566406 58.761719 15.277344 58.761719 14.917969 C 58.761719 14.5625 58.878906 14.277344 59.105469 14.054688 C 59.335938 13.835938 59.660156 13.726562 60.082031 13.726562 C 60.28125 13.726562 60.453125 13.757812 60.601562 13.816406 C 60.75 13.875 60.875 13.964844 60.972656 14.082031 L 60.972656 13.894531 C 60.972656 13.804688 61.035156 13.757812 61.160156 13.757812 C 61.285156 13.757812 61.351562 13.804688 61.351562 13.894531 Z M 60.972656 14.699219 C 60.972656 14.492188 60.890625 14.320312 60.722656 14.191406 C 60.558594 14.058594 60.347656 13.996094 60.09375 13.996094 C 59.792969 13.996094 59.558594 14.082031 59.390625 14.253906 C 59.222656 14.429688 59.136719 14.652344 59.136719 14.917969 C 59.136719 15.207031 59.21875 15.433594 59.378906 15.601562 C 59.539062 15.765625 59.777344 15.851562 60.09375 15.851562 C 60.351562 15.851562 60.5625 15.785156 60.726562 15.652344 C 60.890625 15.523438 60.972656 15.351562 60.972656 15.148438 Z M 62.792969 14.027344 L 62.792969 15.460938 C 62.792969 15.589844 62.824219 15.6875 62.882812 15.753906 C 62.941406 15.816406 63.03125 15.847656 63.152344 15.847656 C 63.199219 15.847656 63.242188 15.84375 63.273438 15.839844 C 63.308594 15.832031 63.363281 15.816406 63.441406 15.789062 C 63.464844 15.78125 63.488281 15.777344 63.511719 15.777344 C 63.550781 15.777344 63.585938 15.789062 63.617188 15.816406 C 63.648438 15.84375 63.664062 15.871094 63.664062 15.90625 C 63.664062 15.960938 63.609375 16.007812 63.503906 16.050781 C 63.402344 16.089844 63.277344 16.113281 63.140625 16.113281 C 62.882812 16.113281 62.699219 16.0625 62.585938 15.957031 C 62.472656 15.851562 62.417969 15.695312 62.417969 15.484375 L 62.417969 14.027344 L 62.078125 14.027344 C 61.953125 14.027344 61.890625 13.988281 61.890625 13.902344 C 61.890625 13.816406 61.953125 13.773438 62.078125 13.773438 L 62.417969 13.773438 L 62.417969 13.246094 C 62.417969 13.15625 62.480469 13.109375 62.605469 13.109375 C 62.730469 13.109375 62.792969 13.15625 62.792969 13.246094 L 62.792969 13.773438 L 63.308594 13.773438 C 63.433594 13.773438 63.496094 13.816406 63.496094 13.902344 C 63.496094 13.988281 63.433594 14.027344 63.308594 14.027344 Z M 64.359375 13.203125 C 64.285156 13.203125 64.226562 13.1875 64.179688 13.148438 C 64.132812 13.113281 64.105469 13.0625 64.105469 13.015625 C 64.105469 12.964844 64.132812 12.917969 64.179688 12.882812 C 64.230469 12.84375 64.289062 12.828125 64.359375 12.828125 C 64.429688 12.828125 64.488281 12.84375 64.539062 12.878906 C 64.589844 12.917969 64.613281 12.960938 64.613281 13.015625 C 64.617188 13.039062 64.609375 13.066406 64.597656 13.089844 C 64.585938 13.113281 64.566406 13.132812 64.542969 13.152344 C 64.519531 13.167969 64.488281 13.183594 64.457031 13.191406 C 64.425781 13.203125 64.394531 13.207031 64.359375 13.203125 Z M 64.546875 15.945312 C 64.546875 16.035156 64.484375 16.082031 64.351562 16.082031 C 64.234375 16.082031 64.171875 16.035156 64.171875 15.945312 L 64.171875 13.894531 C 64.171875 13.804688 64.234375 13.757812 64.359375 13.757812 C 64.484375 13.757812 64.546875 13.804688 64.546875 13.894531 Z M 66.625 16.113281 C 66.226562 16.113281 65.902344 16.003906 65.648438 15.792969 C 65.394531 15.578125 65.269531 15.285156 65.269531 14.921875 C 65.269531 14.542969 65.394531 14.246094 65.648438 14.039062 C 65.902344 13.832031 66.226562 13.726562 66.625 13.726562 C 67.023438 13.726562 67.351562 13.832031 67.605469 14.042969 C 67.859375 14.253906 67.984375 14.546875 67.984375 14.921875 C 67.984375 15.285156 67.855469 15.574219 67.601562 15.789062 C 67.347656 16.003906 67.023438 16.113281 66.625 16.113281 Z M 66.625 13.992188 C 66.347656 13.992188 66.113281 14.070312 65.925781 14.226562 C 65.738281 14.378906 65.644531 14.609375 65.644531 14.921875 C 65.644531 15.230469 65.742188 15.460938 65.941406 15.617188 C 66.136719 15.773438 66.363281 15.847656 66.625 15.847656 C 66.882812 15.847656 67.113281 15.773438 67.3125 15.617188 C 67.507812 15.460938 67.609375 15.230469 67.609375 14.921875 C 67.609375 14.617188 67.515625 14.386719 67.332031 14.230469 C 67.144531 14.074219 66.910156 13.992188 66.625 13.992188 Z M 71.121094 15.945312 C 71.121094 16.035156 71.0625 16.082031 70.9375 16.082031 C 70.8125 16.082031 70.746094 16.035156 70.746094 15.945312 L 70.746094 14.621094 C 70.746094 14.417969 70.683594 14.261719 70.558594 14.152344 C 70.4375 14.046875 70.253906 13.992188 70.011719 13.992188 C 69.738281 13.992188 69.515625 14.066406 69.34375 14.210938 C 69.171875 14.351562 69.082031 14.546875 69.082031 14.792969 L 69.082031 15.945312 C 69.082031 16.035156 69.019531 16.082031 68.894531 16.082031 C 68.769531 16.082031 68.707031 16.035156 68.707031 15.945312 L 68.707031 13.898438 C 68.707031 13.804688 68.769531 13.757812 68.894531 13.757812 C 69.019531 13.757812 69.082031 13.804688 69.082031 13.898438 L 69.082031 14.136719 C 69.179688 14.011719 69.3125 13.910156 69.484375 13.835938 C 69.65625 13.765625 69.847656 13.726562 70.058594 13.726562 C 70.40625 13.726562 70.667969 13.800781 70.851562 13.945312 C 71.03125 14.09375 71.121094 14.292969 71.121094 14.542969 Z M 71.121094 15.945312 " fill-opacity="1" fill-rule="nonzero"/></g><path fill="#3974ba" d="M 28.980469 15.558594 C 28.980469 15.667969 28.941406 15.75 28.863281 15.808594 C 28.785156 15.867188 28.636719 15.925781 28.414062 15.984375 C 28.191406 16.042969 27.9375 16.070312 27.65625 16.070312 C 27.101562 16.070312 26.660156 15.933594 26.335938 15.65625 C 26.015625 15.378906 25.851562 15.003906 25.851562 14.539062 C 25.851562 14.222656 25.933594 13.945312 26.09375 13.707031 C 26.253906 13.472656 26.480469 13.289062 26.773438 13.164062 C 27.066406 13.035156 27.378906 12.972656 27.707031 12.972656 C 27.894531 12.972656 28.066406 12.988281 28.222656 13.019531 C 28.382812 13.050781 28.527344 13.097656 28.652344 13.152344 C 28.777344 13.207031 28.851562 13.246094 28.871094 13.269531 C 28.894531 13.292969 28.902344 13.316406 28.902344 13.34375 C 28.902344 13.378906 28.882812 13.414062 28.847656 13.445312 C 28.808594 13.476562 28.765625 13.488281 28.714844 13.488281 C 28.6875 13.488281 28.664062 13.484375 28.636719 13.472656 C 28.613281 13.460938 28.585938 13.449219 28.554688 13.433594 C 28.304688 13.304688 28.003906 13.234375 27.695312 13.234375 C 27.273438 13.234375 26.921875 13.351562 26.644531 13.585938 C 26.367188 13.820312 26.226562 14.136719 26.226562 14.539062 C 26.226562 14.925781 26.355469 15.234375 26.617188 15.464844 C 26.875 15.695312 27.226562 15.8125 27.671875 15.8125 C 27.882812 15.8125 28.074219 15.789062 28.246094 15.746094 C 28.421875 15.703125 28.527344 15.671875 28.554688 15.648438 C 28.585938 15.625 28.605469 15.582031 28.605469 15.515625 L 28.605469 14.726562 L 27.703125 14.726562 C 27.582031 14.726562 27.519531 14.679688 27.519531 14.589844 C 27.519531 14.496094 27.582031 14.453125 27.703125 14.453125 L 28.800781 14.453125 C 28.917969 14.453125 28.980469 14.496094 28.980469 14.589844 Z M 30.339844 14.324219 L 31.816406 14.324219 C 31.9375 14.324219 32 14.371094 32 14.464844 C 32 14.550781 31.9375 14.597656 31.816406 14.597656 L 30.339844 14.597656 L 30.339844 15.6875 C 30.339844 15.730469 30.367188 15.753906 30.417969 15.753906 L 32.007812 15.753906 C 32.132812 15.753906 32.195312 15.796875 32.195312 15.882812 C 32.195312 15.980469 32.132812 16.027344 32.007812 16.027344 L 30.367188 16.027344 C 30.238281 16.027344 30.140625 16 30.070312 15.953125 C 30 15.902344 29.964844 15.828125 29.964844 15.734375 L 29.964844 13.351562 C 29.964844 13.253906 30 13.171875 30.066406 13.109375 C 30.136719 13.046875 30.246094 13.015625 30.402344 13.015625 L 32.007812 13.015625 C 32.132812 13.015625 32.195312 13.0625 32.195312 13.15625 C 32.195312 13.246094 32.132812 13.289062 32.007812 13.289062 L 30.441406 13.289062 C 30.414062 13.289062 30.390625 13.296875 30.371094 13.316406 C 30.351562 13.332031 30.339844 13.351562 30.339844 13.375 Z M 30.339844 14.324219 " fill-opacity="1" fill-rule="nonzero"/></svg>