<svg xmlns="http://www.w3.org/2000/svg" xmlns:xlink="http://www.w3.org/1999/xlink" width="100" zoomAndPan="magnify" viewBox="0 0 75 30.000001" height="40" preserveAspectRatio="xMidYMid meet" version="1.0"><defs><clipPath id="2aabbf057a"><path d="M 1.210938 9 L 13 9 L 13 20.324219 L 1.210938 20.324219 Z M 1.210938 9 " clip-rule="nonzero"/></clipPath><clipPath id="1b02803c3a"><path d="M 12 9 L 24 9 L 24 20.324219 L 12 20.324219 Z M 12 9 " clip-rule="nonzero"/></clipPath><clipPath id="23489ab760"><path d="M 26 9 L 73.789062 9 L 73.789062 20.324219 L 26 20.324219 Z M 26 9 " clip-rule="nonzero"/></clipPath></defs><g clip-path="url(#2aabbf057a)"><path fill="#ffffff" d="M 11.675781 15.953125 C 12.242188 17.320312 12.53125 18.785156 12.53125 20.261719 L 9.984375 20.261719 C 9.984375 19.121094 9.757812 17.988281 9.320312 16.929688 C 8.882812 15.871094 8.242188 14.910156 7.433594 14.101562 C 6.621094 13.292969 5.664062 12.652344 4.605469 12.214844 C 3.546875 11.777344 2.414062 11.550781 1.269531 11.550781 L 1.269531 9.003906 C 2.75 9.003906 4.214844 9.292969 5.582031 9.859375 C 6.945312 10.425781 8.1875 11.253906 9.234375 12.300781 C 10.28125 13.347656 11.109375 14.585938 11.675781 15.953125 Z M 7.078125 17.859375 C 7.394531 18.621094 7.554688 19.4375 7.554688 20.261719 L 4.988281 20.261719 C 4.988281 19.777344 4.890625 19.292969 4.703125 18.839844 C 4.515625 18.390625 4.242188 17.980469 3.898438 17.636719 C 3.554688 17.292969 3.144531 17.015625 2.691406 16.832031 C 2.242188 16.644531 1.757812 16.546875 1.269531 16.546875 L 1.269531 13.980469 C 2.097656 13.980469 2.914062 14.140625 3.675781 14.457031 C 4.4375 14.773438 5.132812 15.234375 5.714844 15.820312 C 6.296875 16.402344 6.761719 17.097656 7.078125 17.859375 Z M 7.078125 17.859375 " fill-opacity="1" fill-rule="evenodd"/></g><g clip-path="url(#1b02803c3a)"><path fill="#fa7328" d="M 13.390625 13.3125 C 12.824219 11.945312 12.53125 10.480469 12.53125 9.003906 L 15.082031 9.003906 C 15.082031 10.148438 15.304688 11.28125 15.742188 12.335938 C 16.179688 13.394531 16.824219 14.355469 17.632812 15.164062 C 18.441406 15.972656 19.402344 16.613281 20.457031 17.050781 C 21.515625 17.488281 22.648438 17.714844 23.792969 17.714844 L 23.792969 20.261719 C 22.3125 20.261719 20.851562 19.972656 19.484375 19.40625 C 18.117188 18.839844 16.875 18.011719 15.828125 16.964844 C 14.785156 15.917969 13.953125 14.679688 13.390625 13.3125 Z M 17.988281 11.40625 C 17.671875 10.644531 17.507812 9.828125 17.507812 9.003906 L 20.078125 9.003906 C 20.078125 9.492188 20.171875 9.972656 20.359375 10.425781 C 20.546875 10.875 20.820312 11.285156 21.164062 11.628906 C 21.511719 11.976562 21.921875 12.25 22.371094 12.433594 C 22.820312 12.621094 23.304688 12.71875 23.792969 12.71875 L 23.792969 15.285156 C 22.96875 15.285156 22.148438 15.125 21.386719 14.808594 C 20.625 14.492188 19.933594 14.03125 19.347656 13.445312 C 18.765625 12.863281 18.300781 12.167969 17.988281 11.40625 Z M 17.988281 11.40625 " fill-opacity="1" fill-rule="evenodd"/></g><g clip-path="url(#23489ab760)"><path fill="#ffffff" d="M 53.082031 11.707031 L 51.933594 11.707031 L 51.933594 17.734375 L 53.082031 17.734375 Z M 52.515625 9.003906 C 52.09375 9.003906 51.75 9.359375 51.75 9.769531 C 51.75 10.1875 52.09375 10.535156 52.515625 10.535156 C 52.933594 10.535156 53.28125 10.1875 53.28125 9.769531 C 53.28125 9.359375 52.933594 9.003906 52.515625 9.003906 Z M 57.472656 20.265625 C 56.203125 20.265625 54.585938 19.6875 54.511719 18.117188 L 55.648438 18.117188 C 55.671875 18.859375 56.472656 19.316406 57.4375 19.316406 C 58.523438 19.316406 59.363281 18.625 59.363281 17.574219 L 59.363281 16.386719 C 58.917969 17.226562 58.128906 17.722656 57.066406 17.722656 C 55.4375 17.722656 54.140625 16.351562 54.140625 14.648438 C 54.140625 12.941406 55.4375 11.582031 57.066406 11.582031 C 58.128906 11.582031 58.917969 12.078125 59.363281 12.90625 L 59.363281 11.707031 L 60.5 11.707031 L 60.5 17.523438 C 60.5 19.214844 59.214844 20.265625 57.472656 20.265625 Z M 55.25 14.648438 C 55.25 15.78125 56.152344 16.683594 57.300781 16.683594 C 58.488281 16.683594 59.363281 15.820312 59.363281 14.648438 C 59.363281 13.484375 58.488281 12.621094 57.300781 12.621094 C 56.152344 12.621094 55.25 13.523438 55.25 14.648438 Z M 69.191406 12.757812 L 69.191406 11.707031 L 68.042969 11.707031 L 68.042969 17.734375 L 69.191406 17.734375 L 69.191406 14.410156 C 69.191406 13.363281 69.847656 12.671875 70.859375 12.671875 C 71.859375 12.671875 72.503906 13.363281 72.503906 14.410156 L 72.503906 17.734375 L 73.636719 17.734375 L 73.636719 14.289062 C 73.636719 12.621094 72.675781 11.582031 71.117188 11.582031 C 70.253906 11.582031 69.574219 12.015625 69.191406 12.757812 Z M 63.699219 17.511719 L 62.636719 19.933594 L 63.859375 19.933594 L 67.292969 11.707031 L 66.070312 11.707031 L 64.269531 16.203125 L 62.476562 11.707031 L 61.253906 11.707031 Z M 49.359375 17.734375 L 49.359375 9.089844 L 50.507812 9.089844 L 50.507812 17.734375 Z M 46.785156 9.089844 L 46.785156 17.734375 L 47.933594 17.734375 L 47.933594 9.089844 Z M 42.863281 17.859375 C 41.121094 17.859375 39.761719 16.488281 39.761719 14.695312 C 39.761719 12.953125 41.121094 11.597656 42.847656 11.597656 C 44.46875 11.597656 45.75 12.84375 45.75 14.523438 L 45.738281 14.96875 L 40.859375 14.96875 C 40.960938 16.105469 41.738281 16.871094 42.875 16.871094 C 43.726562 16.871094 44.417969 16.4375 44.566406 15.796875 L 45.691406 15.796875 C 45.46875 17.054688 44.304688 17.859375 42.863281 17.859375 Z M 40.910156 14.089844 L 44.542969 14.089844 C 44.46875 13.214844 43.75 12.570312 42.800781 12.570312 C 41.847656 12.570312 41.132812 13.140625 40.910156 14.089844 Z M 36.601562 15.597656 C 36.601562 17.066406 37.441406 17.808594 38.714844 17.808594 C 38.925781 17.808594 39.195312 17.785156 39.382812 17.734375 L 39.382812 16.683594 C 39.246094 16.722656 39.085938 16.734375 38.949219 16.734375 C 38.234375 16.734375 37.753906 16.414062 37.753906 15.574219 L 37.753906 12.792969 L 39.382812 12.792969 L 39.382812 11.707031 L 37.753906 11.707031 L 37.753906 10.078125 L 36.601562 10.078125 L 36.601562 11.707031 L 35.441406 11.707031 L 35.441406 12.792969 L 36.601562 12.792969 Z M 30.449219 11.707031 L 30.449219 12.757812 C 30.832031 12.015625 31.511719 11.582031 32.375 11.582031 C 33.933594 11.582031 34.894531 12.621094 34.894531 14.289062 L 34.894531 17.734375 L 33.757812 17.734375 L 33.757812 14.410156 C 33.757812 13.363281 33.117188 12.671875 32.117188 12.671875 C 31.105469 12.671875 30.449219 13.363281 30.449219 14.410156 L 30.449219 17.734375 L 29.300781 17.734375 L 29.300781 11.707031 Z M 27.804688 9.089844 L 26.609375 9.089844 L 26.609375 17.734375 L 27.804688 17.734375 Z M 27.804688 9.089844 " fill-opacity="1" fill-rule="evenodd"/></g></svg>